<svg width="637" height="637" viewBox="0 0 637 637" fill="none" xmlns="http://www.w3.org/2000/svg">
<circle cx="318.5" cy="318.5" r="318.5" fill="#3D5C61" fill-opacity="0.8"/>
<path d="M337.695 247.44C338.247 247.44 338.691 247.62 339.027 247.98C339.363 248.316 339.531 248.76 339.531 249.312V271.308C339.531 271.86 339.363 272.316 339.027 272.676C338.691 273.012 338.247 273.18 337.695 273.18C337.143 273.18 336.699 273.012 336.363 272.676C336.027 272.34 335.859 271.884 335.859 271.308V261.624H321.675V271.308C321.675 271.86 321.507 272.316 321.171 272.676C320.835 273.012 320.391 273.18 319.839 273.18C319.287 273.18 318.843 273.012 318.507 272.676C318.171 272.34 318.003 271.884 318.003 271.308V249.312C318.003 248.76 318.171 248.316 318.507 247.98C318.843 247.62 319.287 247.44 319.839 247.44C320.391 247.44 320.835 247.62 321.171 247.98C321.507 248.316 321.675 248.76 321.675 249.312V258.6H335.859V249.312C335.859 248.76 336.027 248.316 336.363 247.98C336.699 247.62 337.143 247.44 337.695 247.44ZM346.829 273.18C346.301 273.18 345.857 273.036 345.497 272.748C345.161 272.46 344.993 272.028 344.993 271.452V256.836C344.993 256.26 345.161 255.828 345.497 255.54C345.857 255.228 346.301 255.072 346.829 255.072C347.357 255.072 347.789 255.228 348.125 255.54C348.461 255.828 348.629 256.26 348.629 256.836V271.452C348.629 272.028 348.461 272.46 348.125 272.748C347.789 273.036 347.357 273.18 346.829 273.18ZM346.829 251.544C346.133 251.544 345.581 251.352 345.173 250.968C344.765 250.584 344.561 250.08 344.561 249.456C344.561 248.832 344.765 248.34 345.173 247.98C345.581 247.596 346.133 247.404 346.829 247.404C347.501 247.404 348.041 247.596 348.449 247.98C348.881 248.34 349.097 248.832 349.097 249.456C349.097 250.08 348.893 250.584 348.485 250.968C348.077 251.352 347.525 251.544 346.829 251.544ZM366.203 256.152C366.347 255.792 366.551 255.528 366.815 255.36C367.103 255.192 367.403 255.108 367.715 255.108C368.171 255.108 368.567 255.264 368.903 255.576C369.263 255.888 369.443 256.26 369.443 256.692C369.443 256.932 369.395 257.16 369.299 257.376L359.291 278.616C359.147 278.952 358.931 279.204 358.643 279.372C358.379 279.564 358.091 279.66 357.779 279.66C357.347 279.66 356.951 279.516 356.591 279.228C356.255 278.94 356.087 278.58 356.087 278.148C356.087 277.956 356.147 277.716 356.267 277.428L358.751 272.136L351.803 257.376C351.707 257.184 351.659 256.968 351.659 256.728C351.659 256.272 351.851 255.888 352.235 255.576C352.619 255.264 353.051 255.108 353.531 255.108C354.251 255.108 354.767 255.444 355.079 256.116L360.659 268.5L366.203 256.152ZM379.513 255C381.841 255 383.569 255.588 384.697 256.764C385.849 257.94 386.425 259.728 386.425 262.128V271.452C386.425 272.004 386.269 272.436 385.957 272.748C385.645 273.036 385.213 273.18 384.661 273.18C384.133 273.18 383.713 273.024 383.401 272.712C383.089 272.4 382.933 271.98 382.933 271.452V270.12C382.477 271.128 381.793 271.908 380.881 272.46C379.993 272.988 378.949 273.252 377.749 273.252C376.597 273.252 375.541 273.024 374.581 272.568C373.645 272.088 372.901 271.44 372.349 270.624C371.797 269.808 371.521 268.884 371.521 267.852C371.497 266.556 371.821 265.548 372.493 264.828C373.165 264.084 374.257 263.556 375.769 263.244C377.281 262.908 379.381 262.74 382.069 262.74H382.897V261.696C382.897 260.352 382.621 259.38 382.069 258.78C381.517 258.18 380.629 257.88 379.405 257.88C378.565 257.88 377.773 257.988 377.029 258.204C376.285 258.42 375.469 258.732 374.581 259.14C373.933 259.5 373.477 259.68 373.213 259.68C372.853 259.68 372.553 259.548 372.313 259.284C372.097 259.02 371.989 258.684 371.989 258.276C371.989 257.916 372.085 257.604 372.277 257.34C372.493 257.052 372.829 256.776 373.285 256.512C374.125 256.056 375.109 255.696 376.237 255.432C377.365 255.144 378.457 255 379.513 255ZM378.397 270.552C379.717 270.552 380.797 270.108 381.637 269.22C382.477 268.308 382.897 267.144 382.897 265.728V264.792H382.249C380.377 264.792 378.937 264.876 377.929 265.044C376.921 265.212 376.201 265.5 375.769 265.908C375.337 266.292 375.121 266.856 375.121 267.6C375.121 268.464 375.433 269.172 376.057 269.724C376.681 270.276 377.461 270.552 378.397 270.552ZM393.163 266.16C392.875 266.16 392.623 266.052 392.407 265.836C392.191 265.62 392.071 265.332 392.047 264.972L390.967 249.708C390.895 249.036 391.063 248.496 391.471 248.088C391.903 247.656 392.467 247.44 393.163 247.44C393.835 247.44 394.375 247.656 394.783 248.088C395.215 248.496 395.395 249.036 395.323 249.708L394.243 264.972C394.219 265.356 394.111 265.656 393.919 265.872C393.727 266.064 393.475 266.16 393.163 266.16ZM393.163 273.18C392.515 273.18 391.963 272.964 391.507 272.532C391.075 272.1 390.859 271.548 390.859 270.876C390.859 270.204 391.075 269.652 391.507 269.22C391.963 268.764 392.515 268.536 393.163 268.536C393.811 268.536 394.351 268.764 394.783 269.22C395.215 269.652 395.431 270.204 395.431 270.876C395.431 271.548 395.215 272.1 394.783 272.532C394.351 272.964 393.811 273.18 393.163 273.18ZM336.433 322.18C335.881 322.18 335.437 322.012 335.101 321.676C334.765 321.34 334.597 320.884 334.597 320.308V298.312C334.597 297.76 334.765 297.316 335.101 296.98C335.437 296.62 335.881 296.44 336.433 296.44C337.009 296.44 337.465 296.608 337.801 296.944C338.137 297.28 338.305 297.736 338.305 298.312V320.308C338.305 320.884 338.137 321.34 337.801 321.676C337.489 322.012 337.033 322.18 336.433 322.18ZM345.454 296.44C346.174 296.44 346.738 296.704 347.146 297.232C347.578 297.76 347.794 298.54 347.794 299.572C347.794 301.612 347.11 303.376 345.742 304.864C345.454 305.152 345.142 305.296 344.806 305.296C344.494 305.296 344.23 305.2 344.014 305.008C343.798 304.792 343.69 304.54 343.69 304.252C343.69 303.988 343.798 303.736 344.014 303.496C344.686 302.8 345.118 301.972 345.31 301.012C344.71 300.964 344.206 300.736 343.798 300.328C343.414 299.92 343.222 299.404 343.222 298.78C343.222 298.108 343.438 297.556 343.87 297.124C344.302 296.668 344.83 296.44 345.454 296.44ZM372.5 304C376.436 304 378.404 306.364 378.404 311.092V320.452C378.404 321.004 378.236 321.436 377.9 321.748C377.564 322.036 377.12 322.18 376.568 322.18C376.04 322.18 375.608 322.036 375.272 321.748C374.936 321.436 374.768 321.004 374.768 320.452V311.128C374.768 309.664 374.504 308.608 373.976 307.96C373.448 307.288 372.62 306.952 371.492 306.952C370.172 306.952 369.128 307.408 368.36 308.32C367.592 309.208 367.208 310.432 367.208 311.992V320.452C367.208 321.004 367.04 321.436 366.704 321.748C366.368 322.036 365.924 322.18 365.372 322.18C364.844 322.18 364.412 322.036 364.076 321.748C363.74 321.436 363.572 321.004 363.572 320.452V311.128C363.572 309.664 363.308 308.608 362.78 307.96C362.252 307.288 361.424 306.952 360.296 306.952C358.976 306.952 357.92 307.408 357.128 308.32C356.36 309.208 355.976 310.432 355.976 311.992V320.452C355.976 321.004 355.808 321.436 355.472 321.748C355.136 322.036 354.704 322.18 354.176 322.18C353.648 322.18 353.204 322.036 352.844 321.748C352.508 321.436 352.34 321.004 352.34 320.452V305.8C352.34 305.272 352.52 304.852 352.88 304.54C353.24 304.228 353.672 304.072 354.176 304.072C354.68 304.072 355.088 304.228 355.4 304.54C355.736 304.828 355.904 305.236 355.904 305.764V307.096C356.432 306.088 357.164 305.32 358.1 304.792C359.036 304.264 360.116 304 361.34 304C362.684 304 363.788 304.276 364.652 304.828C365.54 305.38 366.2 306.232 366.632 307.384C367.16 306.352 367.94 305.536 368.972 304.936C370.004 304.312 371.18 304 372.5 304ZM254.47 409.384C251.184 409.512 249.541 408.381 249.541 405.992C249.541 404.968 249.819 404.2 250.373 403.688C250.886 403.133 251.718 402.813 252.87 402.728L254.918 402.6C256.667 402.515 257.99 401.96 258.885 400.936C259.782 399.912 260.23 398.355 260.23 396.264V367.656C260.23 366.419 260.592 365.437 261.318 364.712C262.086 363.944 263.088 363.56 264.326 363.56C265.606 363.56 266.608 363.944 267.333 364.712C268.102 365.437 268.486 366.419 268.486 367.656V396.264C268.486 404.328 264.496 408.659 256.518 409.256L254.47 409.384ZM282.207 409C280.97 409 279.988 408.659 279.263 407.976C278.58 407.293 278.239 406.333 278.239 405.096V367.784C278.239 366.547 278.58 365.587 279.263 364.904C279.988 364.221 280.97 363.88 282.207 363.88H305.311C306.548 363.88 307.508 364.157 308.191 364.712C308.874 365.267 309.215 366.056 309.215 367.08C309.215 368.147 308.874 368.979 308.191 369.576C307.508 370.131 306.548 370.408 305.311 370.408H286.303V382.824H304.031C305.268 382.824 306.228 383.101 306.911 383.656C307.594 384.211 307.935 385.021 307.935 386.088C307.935 387.112 307.594 387.901 306.911 388.456C306.228 389.011 305.268 389.288 304.031 389.288H286.303V402.472H305.311C306.548 402.472 307.508 402.771 308.191 403.368C308.874 403.923 309.215 404.733 309.215 405.8C309.215 406.824 308.874 407.613 308.191 408.168C307.508 408.723 306.548 409 305.311 409H282.207ZM350.103 363.56C351.297 363.56 352.236 363.944 352.919 364.712C353.644 365.437 354.007 366.419 354.007 367.656V405.224C354.007 406.461 353.644 407.464 352.919 408.232C352.193 409 351.255 409.384 350.103 409.384C348.737 409.384 347.692 408.893 346.967 407.912L323.607 377.512V405.224C323.607 406.461 323.265 407.464 322.583 408.232C321.9 409 320.961 409.384 319.767 409.384C318.572 409.384 317.633 409 316.951 408.232C316.268 407.464 315.927 406.461 315.927 405.224V367.656C315.927 366.419 316.289 365.437 317.015 364.712C317.74 363.944 318.7 363.56 319.895 363.56C321.217 363.56 322.241 364.051 322.967 365.032L346.263 395.304V367.656C346.263 366.419 346.604 365.437 347.287 364.712C348.012 363.944 348.951 363.56 350.103 363.56ZM397.915 363.56C399.11 363.56 400.048 363.944 400.731 364.712C401.456 365.437 401.819 366.419 401.819 367.656V405.224C401.819 406.461 401.456 407.464 400.731 408.232C400.006 409 399.067 409.384 397.915 409.384C396.55 409.384 395.504 408.893 394.779 407.912L371.419 377.512V405.224C371.419 406.461 371.078 407.464 370.395 408.232C369.712 409 368.774 409.384 367.579 409.384C366.384 409.384 365.446 409 364.763 408.232C364.08 407.464 363.739 406.461 363.739 405.224V367.656C363.739 366.419 364.102 365.437 364.827 364.712C365.552 363.944 366.512 363.56 367.707 363.56C369.03 363.56 370.054 364.051 370.779 365.032L394.075 395.304V367.656C394.075 366.419 394.416 365.437 395.099 364.712C395.824 363.944 396.763 363.56 397.915 363.56ZM452.448 404.072C452.704 404.627 452.832 405.181 452.832 405.736C452.832 406.717 452.426 407.549 451.616 408.232C450.848 408.915 449.952 409.256 448.928 409.256C448.245 409.256 447.605 409.085 447.008 408.744C446.41 408.36 445.941 407.784 445.6 407.016L441.76 398.44H419.232L415.392 407.016C415.05 407.784 414.581 408.36 413.984 408.744C413.386 409.085 412.725 409.256 412 409.256C411.018 409.256 410.122 408.915 409.312 408.232C408.501 407.549 408.096 406.717 408.096 405.736C408.096 405.181 408.224 404.627 408.48 404.072L426.144 366.12C426.528 365.267 427.104 364.627 427.872 364.2C428.682 363.731 429.536 363.496 430.432 363.496C431.328 363.496 432.16 363.731 432.928 364.2C433.738 364.627 434.336 365.267 434.72 366.12L452.448 404.072ZM422.048 392.04H438.944L430.496 373.032L422.048 392.04ZM315.765 472.704C318.368 473.429 320.373 474.752 321.781 476.672C323.232 478.592 323.957 480.939 323.957 483.712C323.957 487.552 322.57 490.56 319.797 492.736C317.066 494.912 313.29 496 308.469 496H291.957C290.72 496 289.738 495.659 289.013 494.976C288.33 494.293 287.989 493.333 287.989 492.096V454.784C287.989 453.547 288.33 452.587 289.013 451.904C289.738 451.221 290.72 450.88 291.957 450.88H307.829C312.522 450.88 316.192 451.925 318.837 454.016C321.525 456.064 322.869 458.944 322.869 462.656C322.869 465.045 322.229 467.115 320.949 468.864C319.712 470.613 317.984 471.893 315.765 472.704ZM296.053 469.888H306.485C312.16 469.888 314.997 467.776 314.997 463.552C314.997 461.419 314.293 459.84 312.885 458.816C311.477 457.792 309.344 457.28 306.485 457.28H296.053V469.888ZM307.573 489.6C310.56 489.6 312.736 489.067 314.101 488C315.466 486.933 316.149 485.269 316.149 483.008C316.149 480.747 315.445 479.061 314.037 477.952C312.672 476.843 310.517 476.288 307.573 476.288H296.053V489.6H307.573ZM335.773 496.384C334.535 496.384 333.533 496 332.765 495.232C332.039 494.464 331.677 493.461 331.677 492.224V454.656C331.677 453.419 332.039 452.437 332.765 451.712C333.533 450.944 334.535 450.56 335.773 450.56C337.053 450.56 338.055 450.944 338.781 451.712C339.549 452.437 339.933 453.419 339.933 454.656V492.224C339.933 493.461 339.549 494.464 338.781 495.232C338.055 496 337.053 496.384 335.773 496.384ZM385.773 490.816C386.285 491.584 386.541 492.331 386.541 493.056C386.541 494.037 386.135 494.848 385.325 495.488C384.557 496.128 383.639 496.448 382.573 496.448C381.89 496.448 381.229 496.299 380.589 496C379.991 495.659 379.479 495.168 379.053 494.528L370.541 481.6C369.687 480.235 368.77 479.275 367.789 478.72C366.85 478.165 365.613 477.888 364.077 477.888H357.805V492.224C357.805 493.504 357.442 494.528 356.717 495.296C355.991 496.021 355.01 496.384 353.773 496.384C352.535 496.384 351.533 496.021 350.765 495.296C350.039 494.528 349.677 493.504 349.677 492.224V454.784C349.677 453.547 350.018 452.587 350.701 451.904C351.426 451.221 352.407 450.88 353.645 450.88H369.645C374.765 450.88 378.647 452.032 381.293 454.336C383.981 456.597 385.325 459.883 385.325 464.192C385.325 467.691 384.322 470.571 382.317 472.832C380.354 475.051 377.559 476.48 373.933 477.12C375.17 477.419 376.258 477.952 377.197 478.72C378.135 479.488 379.053 480.555 379.949 481.92L385.773 490.816ZM368.493 471.552C371.607 471.552 373.89 470.976 375.341 469.824C376.791 468.629 377.517 466.816 377.517 464.384C377.517 461.909 376.791 460.117 375.341 459.008C373.89 457.856 371.607 457.28 368.493 457.28H357.741V471.552H368.493ZM413.96 496.576C409.565 496.576 405.747 495.637 402.504 493.76C399.304 491.883 396.829 489.195 395.08 485.696C393.331 482.197 392.456 478.101 392.456 473.408C392.456 468.715 393.309 464.64 395.016 461.184C396.765 457.685 399.261 454.997 402.504 453.12C405.747 451.243 409.565 450.304 413.96 450.304C418.355 450.304 422.152 451.243 425.352 453.12C428.595 454.997 431.069 457.685 432.776 461.184C434.525 464.64 435.4 468.715 435.4 473.408C435.4 478.101 434.525 482.197 432.776 485.696C431.027 489.195 428.531 491.883 425.288 493.76C422.088 495.637 418.312 496.576 413.96 496.576ZM413.96 489.984C418.099 489.984 421.32 488.555 423.624 485.696C425.971 482.837 427.144 478.741 427.144 473.408C427.144 468.075 425.971 464 423.624 461.184C421.32 458.325 418.099 456.896 413.96 456.896C409.779 456.896 406.515 458.325 404.168 461.184C401.864 464 400.712 468.075 400.712 473.408C400.712 478.741 401.864 482.837 404.168 485.696C406.515 488.555 409.779 489.984 413.96 489.984Z" fill="white"/>
<path d="M80 354L159.924 207.577L215.808 354L258.268 157L314.152 338.078" stroke="white"/>
<path d="M139.631 244.104L149.443 264.71L156.311 251.355L164.161 264.71V257.46L173.973 264.71V244.104" stroke="white"/>
<path d="M247.653 206.64L251.236 223.206L255.472 214.286L259.055 237.86L265.571 223.206L272.412 230.215L269.154 214.286L277.624 219.065" stroke="white"/>
<path d="M520.156 420.115V449.188C520.156 449.188 508.494 444.096 503.402 437.526C498.31 430.956 493.875 403.525 493.875 403.525C492.725 397.119 478.106 383.322 474 403.525C475.043 424.858 491.083 452.638 495.682 457.401C500.281 462.164 520.156 473.991 520.156 473.991C520.156 473.991 518.349 534.273 523.441 534.273H539.702C547.258 534.273 546.272 485.982 546.272 485.982C546.272 485.982 566.968 476.126 574.853 466.764C582.737 457.401 582.737 449.188 582.737 449.188C582.737 449.188 587.829 426.357 582.737 421.594C577.645 416.83 570.418 415.352 567.625 420.115C564.833 424.879 561.601 425.817 562.205 437.526C562.809 449.236 560.659 461.404 546.272 457.401V420.115C546.272 413.874 558.629 401.856 546.272 384.636C533.915 367.416 525.149 388.58 525.248 393.506C525.346 398.432 520.156 420.115 520.156 420.115Z" stroke="white" stroke-width="0.5"/>
<line x1="530.425" y1="480.495" x2="530.425" y2="490.351" stroke="white" stroke-width="0.5"/>
<line x1="529.768" y1="489.694" x2="529.768" y2="499.549" stroke="white" stroke-width="0.5"/>
<line x1="528.126" y1="472.282" x2="528.126" y2="482.138" stroke="white" stroke-width="0.5"/>
<line x1="524.512" y1="463.413" x2="524.512" y2="473.268" stroke="white" stroke-width="0.5"/>
<line x1="523.198" y1="470.64" x2="523.198" y2="480.495" stroke="white" stroke-width="0.5"/>
<line x1="520.898" y1="469.326" x2="520.898" y2="479.181" stroke="white" stroke-width="0.5"/>
<line x1="532.396" y1="464.727" x2="532.396" y2="474.582" stroke="white" stroke-width="0.5"/>
<line x1="526.155" y1="479.181" x2="526.155" y2="489.037" stroke="white" stroke-width="0.5"/>
<line x1="523.527" y1="482.138" x2="523.527" y2="491.993" stroke="white" stroke-width="0.5"/>
<line x1="532.396" y1="482.138" x2="532.396" y2="491.993" stroke="white" stroke-width="0.5"/>
<line x1="535.353" y1="486.08" x2="535.353" y2="495.935" stroke="white" stroke-width="0.5"/>
<line x1="528.126" y1="487.065" x2="528.126" y2="496.921" stroke="white" stroke-width="0.5"/>
<line x1="525.498" y1="489.694" x2="525.498" y2="499.549" stroke="white" stroke-width="0.5"/>
<line x1="534.039" y1="476.225" x2="534.039" y2="486.08" stroke="white" stroke-width="0.5"/>
<line x1="532.396" y1="414.465" x2="532.396" y2="424.32" stroke="white" stroke-width="0.5"/>
<line x1="541.266" y1="411.508" x2="541.266" y2="421.363" stroke="white" stroke-width="0.5"/>
<line x1="530.097" y1="410.523" x2="530.097" y2="420.378" stroke="white" stroke-width="0.5"/>
<line x1="538.967" y1="407.566" x2="538.967" y2="417.421" stroke="white" stroke-width="0.5"/>
<line x1="528.126" y1="404.609" x2="528.126" y2="414.465" stroke="white" stroke-width="0.5"/>
<line x1="536.995" y1="401.653" x2="536.995" y2="411.508" stroke="white" stroke-width="0.5"/>
<line x1="525.498" y1="409.537" x2="525.498" y2="419.392" stroke="white" stroke-width="0.5"/>
<line x1="534.367" y1="406.58" x2="534.367" y2="416.436" stroke="white" stroke-width="0.5"/>
<line x1="535.353" y1="402.638" x2="535.353" y2="412.494" stroke="white" stroke-width="0.5"/>
<line x1="535.353" y1="402.638" x2="535.353" y2="412.494" stroke="white" stroke-width="0.5"/>
<line x1="543.237" y1="400.01" x2="543.237" y2="409.866" stroke="white" stroke-width="0.5"/>
<line x1="528.126" y1="417.421" x2="528.126" y2="427.277" stroke="white" stroke-width="0.5"/>
<line x1="536.995" y1="414.465" x2="536.995" y2="424.32" stroke="white" stroke-width="0.5"/>
<line x1="525.498" y1="420.378" x2="525.498" y2="430.233" stroke="white" stroke-width="0.5"/>
<line x1="523.855" y1="419.064" x2="523.855" y2="428.919" stroke="white" stroke-width="0.5"/>
<line x1="522.213" y1="417.421" x2="522.213" y2="427.277" stroke="white" stroke-width="0.5"/>
<line x1="534.367" y1="417.421" x2="534.367" y2="427.277" stroke="white" stroke-width="0.5"/>
<line x1="534.367" y1="420.378" x2="534.367" y2="430.233" stroke="white" stroke-width="0.5"/>
<line x1="543.237" y1="417.421" x2="543.237" y2="427.277" stroke="white" stroke-width="0.5"/>
<line x1="537.324" y1="424.32" x2="537.324" y2="434.175" stroke="white" stroke-width="0.5"/>
<line x1="546.194" y1="421.363" x2="546.194" y2="431.219" stroke="white" stroke-width="0.5"/>
<line x1="530.097" y1="425.306" x2="530.097" y2="435.161" stroke="white" stroke-width="0.5"/>
<line x1="538.967" y1="422.349" x2="538.967" y2="432.204" stroke="white" stroke-width="0.5"/>
<line x1="536.01" y1="414.465" x2="536.01" y2="424.32" stroke="white" stroke-width="0.5"/>
<line x1="544.88" y1="411.508" x2="544.88" y2="421.363" stroke="white" stroke-width="0.5"/>
<line x1="539.952" y1="501.191" x2="539.952" y2="511.047" stroke="white" stroke-width="0.5"/>
<line x1="537.652" y1="497.249" x2="537.652" y2="507.105" stroke="white" stroke-width="0.5"/>
<line x1="536.01" y1="491.336" x2="536.01" y2="501.191" stroke="white" stroke-width="0.5"/>
<line x1="533.053" y1="496.264" x2="533.053" y2="506.119" stroke="white" stroke-width="0.5"/>
<line x1="541.923" y1="489.694" x2="541.923" y2="499.549" stroke="white" stroke-width="0.5"/>
<line x1="535.681" y1="504.148" x2="535.681" y2="514.003" stroke="white" stroke-width="0.5"/>
<line x1="534.367" y1="504.148" x2="534.367" y2="514.003" stroke="white" stroke-width="0.5"/>
<line x1="533.053" y1="507.105" x2="533.053" y2="516.96" stroke="white" stroke-width="0.5"/>
<line x1="541.923" y1="507.105" x2="541.923" y2="516.96" stroke="white" stroke-width="0.5"/>
<line x1="544.88" y1="511.047" x2="544.88" y2="520.902" stroke="white" stroke-width="0.5"/>
<line x1="537.652" y1="512.032" x2="537.652" y2="521.888" stroke="white" stroke-width="0.5"/>
<line x1="539.952" y1="512.361" x2="539.952" y2="522.216" stroke="white" stroke-width="0.5"/>
<line x1="540.938" y1="515.974" x2="540.938" y2="525.83" stroke="white" stroke-width="0.5"/>
<line x1="542.909" y1="515.974" x2="542.909" y2="525.83" stroke="white" stroke-width="0.5"/>
<line x1="536.01" y1="512.032" x2="536.01" y2="521.888" stroke="white" stroke-width="0.5"/>
<line x1="539.952" y1="520.902" x2="539.952" y2="530.757" stroke="white" stroke-width="0.5"/>
<line x1="543.566" y1="501.191" x2="543.566" y2="511.047" stroke="white" stroke-width="0.5"/>
<line x1="529.44" y1="512.361" x2="529.44" y2="522.216" stroke="white" stroke-width="0.5"/>
<line x1="527.14" y1="508.419" x2="527.14" y2="518.274" stroke="white" stroke-width="0.5"/>
<line x1="525.169" y1="502.505" x2="525.169" y2="512.361" stroke="white" stroke-width="0.5"/>
<line x1="522.541" y1="507.433" x2="522.541" y2="517.288" stroke="white" stroke-width="0.5"/>
<line x1="531.411" y1="500.863" x2="531.411" y2="510.718" stroke="white" stroke-width="0.5"/>
<line x1="528.126" y1="498.892" x2="528.126" y2="508.747" stroke="white" stroke-width="0.5"/>
<line x1="525.169" y1="515.317" x2="525.169" y2="525.173" stroke="white" stroke-width="0.5"/>
<line x1="522.541" y1="518.274" x2="522.541" y2="528.129" stroke="white" stroke-width="0.5"/>
<line x1="531.411" y1="518.274" x2="531.411" y2="528.129" stroke="white" stroke-width="0.5"/>
<line x1="529.768" y1="523.202" x2="529.768" y2="533.057" stroke="white" stroke-width="0.5"/>
<line x1="534.367" y1="522.216" x2="534.367" y2="532.071" stroke="white" stroke-width="0.5"/>
<line x1="536.667" y1="522.216" x2="536.667" y2="532.071" stroke="white" stroke-width="0.5"/>
<line x1="527.14" y1="523.202" x2="527.14" y2="533.057" stroke="white" stroke-width="0.5"/>
<line x1="533.053" y1="512.361" x2="533.053" y2="522.216" stroke="white" stroke-width="0.5"/>
<line x1="536.667" y1="437.46" x2="536.667" y2="447.316" stroke="white" stroke-width="0.5"/>
<line x1="540.938" y1="428.919" x2="540.938" y2="438.775" stroke="white" stroke-width="0.5"/>
<line x1="538.31" y1="392.783" x2="538.31" y2="402.638" stroke="white" stroke-width="0.5"/>
<line x1="540.938" y1="468.34" x2="540.938" y2="478.196" stroke="white" stroke-width="0.5"/>
<line x1="527.797" y1="454.214" x2="527.797" y2="464.07" stroke="white" stroke-width="0.5"/>
<line x1="531.739" y1="434.504" x2="531.739" y2="444.359" stroke="white" stroke-width="0.5"/>
<line x1="536.01" y1="388.841" x2="536.01" y2="398.696" stroke="white" stroke-width="0.5"/>
<line x1="538.638" y1="464.398" x2="538.638" y2="474.254" stroke="white" stroke-width="0.5"/>
<line x1="525.498" y1="450.272" x2="525.498" y2="460.128" stroke="white" stroke-width="0.5"/>
<line x1="523.198" y1="428.591" x2="523.198" y2="438.446" stroke="white" stroke-width="0.5"/>
<line x1="534.039" y1="382.928" x2="534.039" y2="392.783" stroke="white" stroke-width="0.5"/>
<line x1="536.667" y1="458.485" x2="536.667" y2="468.34" stroke="white" stroke-width="0.5"/>
<line x1="523.527" y1="444.359" x2="523.527" y2="454.214" stroke="white" stroke-width="0.5"/>
<line x1="527.14" y1="433.518" x2="527.14" y2="443.374" stroke="white" stroke-width="0.5"/>
<line x1="531.411" y1="387.855" x2="531.411" y2="397.711" stroke="white" stroke-width="0.5"/>
<line x1="534.039" y1="463.413" x2="534.039" y2="473.268" stroke="white" stroke-width="0.5"/>
<line x1="520.898" y1="449.287" x2="520.898" y2="459.142" stroke="white" stroke-width="0.5"/>
<line x1="536.01" y1="426.948" x2="536.01" y2="436.803" stroke="white" stroke-width="0.5"/>
<line x1="540.281" y1="381.285" x2="540.281" y2="391.14" stroke="white" stroke-width="0.5"/>
<line x1="542.909" y1="456.843" x2="542.909" y2="466.698" stroke="white" stroke-width="0.5"/>
<line x1="529.768" y1="442.717" x2="529.768" y2="452.572" stroke="white" stroke-width="0.5"/>
<line x1="529.768" y1="441.403" x2="529.768" y2="451.258" stroke="white" stroke-width="0.5"/>
<line x1="546.194" y1="393.769" x2="546.194" y2="403.624" stroke="white" stroke-width="0.5"/>
<line x1="532.068" y1="402.31" x2="532.068" y2="412.165" stroke="white" stroke-width="0.5"/>
<line x1="529.768" y1="396.068" x2="529.768" y2="405.923" stroke="white" stroke-width="0.5"/>
<line x1="532.725" y1="396.068" x2="532.725" y2="405.923" stroke="white" stroke-width="0.5"/>
<line x1="536.667" y1="471.297" x2="536.667" y2="481.152" stroke="white" stroke-width="0.5"/>
<line x1="521.884" y1="458.485" x2="521.884" y2="468.34" stroke="white" stroke-width="0.5"/>
<line x1="538.638" y1="493.964" x2="538.638" y2="503.82" stroke="white" stroke-width="0.5"/>
<line x1="538.638" y1="443.374" x2="538.638" y2="453.229" stroke="white" stroke-width="0.5"/>
<line x1="542.909" y1="434.832" x2="542.909" y2="444.688" stroke="white" stroke-width="0.5"/>
<line x1="540.281" y1="398.696" x2="540.281" y2="408.551" stroke="white" stroke-width="0.5"/>
<line x1="542.909" y1="474.254" x2="542.909" y2="484.109" stroke="white" stroke-width="0.5"/>
<line x1="529.768" y1="460.128" x2="529.768" y2="469.983" stroke="white" stroke-width="0.5"/>
<line x1="541.595" y1="447.316" x2="541.595" y2="457.171" stroke="white" stroke-width="0.5"/>
<line x1="545.865" y1="438.774" x2="545.865" y2="448.63" stroke="white" stroke-width="0.5"/>
<line x1="543.237" y1="402.638" x2="543.237" y2="412.494" stroke="white" stroke-width="0.5"/>
<line x1="545.865" y1="478.196" x2="545.865" y2="488.051" stroke="white" stroke-width="0.5"/>
<line x1="531.411" y1="465.055" x2="531.411" y2="474.911" stroke="white" stroke-width="0.5"/>
<line x1="534.367" y1="448.301" x2="534.367" y2="458.157" stroke="white" stroke-width="0.5"/>
<line x1="538.638" y1="439.76" x2="538.638" y2="449.615" stroke="white" stroke-width="0.5"/>
<line x1="536.01" y1="403.624" x2="536.01" y2="413.479" stroke="white" stroke-width="0.5"/>
<line x1="538.638" y1="479.181" x2="538.638" y2="489.037" stroke="white" stroke-width="0.5"/>
<line x1="541.923" y1="481.152" x2="541.923" y2="491.008" stroke="white" stroke-width="0.5"/>
<line x1="540.281" y1="437.46" x2="540.281" y2="447.316" stroke="white" stroke-width="0.5"/>
<line x1="544.551" y1="428.919" x2="544.551" y2="438.775" stroke="white" stroke-width="0.5"/>
<line x1="541.923" y1="392.783" x2="541.923" y2="402.638" stroke="white" stroke-width="0.5"/>
<path d="M520.156 420.115V449.188C520.156 449.188 508.494 444.096 503.402 437.526C498.31 430.956 493.875 403.525 493.875 403.525C492.725 397.119 478.106 383.322 474 403.525C475.043 424.858 491.083 452.638 495.682 457.401C500.281 462.164 520.156 473.991 520.156 473.991C520.156 473.991 518.349 534.273 523.441 534.273H539.702C547.258 534.273 546.272 485.982 546.272 485.982C546.272 485.982 566.968 476.126 574.853 466.764C582.737 457.401 582.737 449.188 582.737 449.188C582.737 449.188 587.829 426.357 582.737 421.594C577.645 416.83 570.418 415.352 567.625 420.115C564.833 424.879 561.601 425.817 562.205 437.526C562.809 449.236 560.659 461.404 546.272 457.401V420.115C546.272 413.874 558.629 401.856 546.272 384.636C533.915 367.416 525.149 388.58 525.248 393.506C525.346 398.432 520.156 420.115 520.156 420.115Z" stroke="white" stroke-width="0.5"/>
<line x1="532.396" y1="414.465" x2="532.396" y2="424.32" stroke="white" stroke-width="0.5"/>
<line x1="541.266" y1="411.508" x2="541.266" y2="421.363" stroke="white" stroke-width="0.5"/>
<line x1="530.097" y1="410.523" x2="530.097" y2="420.378" stroke="white" stroke-width="0.5"/>
<line x1="538.967" y1="407.566" x2="538.967" y2="417.421" stroke="white" stroke-width="0.5"/>
<line x1="528.126" y1="404.609" x2="528.126" y2="414.465" stroke="white" stroke-width="0.5"/>
<line x1="536.995" y1="401.653" x2="536.995" y2="411.508" stroke="white" stroke-width="0.5"/>
<line x1="534.367" y1="406.58" x2="534.367" y2="416.436" stroke="white" stroke-width="0.5"/>
<line x1="535.353" y1="402.638" x2="535.353" y2="412.494" stroke="white" stroke-width="0.5"/>
<line x1="535.353" y1="402.638" x2="535.353" y2="412.494" stroke="white" stroke-width="0.5"/>
<line x1="528.126" y1="417.421" x2="528.126" y2="427.277" stroke="white" stroke-width="0.5"/>
<line x1="536.995" y1="414.465" x2="536.995" y2="424.32" stroke="white" stroke-width="0.5"/>
<line x1="534.367" y1="417.421" x2="534.367" y2="427.277" stroke="white" stroke-width="0.5"/>
<line x1="534.367" y1="420.378" x2="534.367" y2="430.233" stroke="white" stroke-width="0.5"/>
<line x1="537.324" y1="424.32" x2="537.324" y2="434.175" stroke="white" stroke-width="0.5"/>
<line x1="530.097" y1="425.306" x2="530.097" y2="435.161" stroke="white" stroke-width="0.5"/>
<line x1="538.967" y1="422.349" x2="538.967" y2="432.204" stroke="white" stroke-width="0.5"/>
<line x1="536.01" y1="414.465" x2="536.01" y2="424.32" stroke="white" stroke-width="0.5"/>
<line x1="538.31" y1="392.783" x2="538.31" y2="402.638" stroke="white" stroke-width="0.5"/>
<line x1="532.068" y1="402.31" x2="532.068" y2="412.165" stroke="white" stroke-width="0.5"/>
<line x1="529.768" y1="396.068" x2="529.768" y2="405.923" stroke="white" stroke-width="0.5"/>
<line x1="532.725" y1="396.068" x2="532.725" y2="405.923" stroke="white" stroke-width="0.5"/>
<line x1="540.281" y1="398.696" x2="540.281" y2="408.551" stroke="white" stroke-width="0.5"/>
<line x1="536.01" y1="403.624" x2="536.01" y2="413.479" stroke="white" stroke-width="0.5"/>
<line x1="541.923" y1="392.783" x2="541.923" y2="402.638" stroke="white" stroke-width="0.5"/>
<line x1="544.551" y1="468.34" x2="544.551" y2="478.196" stroke="white" stroke-width="0.5"/>
<line x1="531.411" y1="454.214" x2="531.411" y2="464.07" stroke="white" stroke-width="0.5"/>
<line x1="554.406" y1="468.34" x2="554.406" y2="478.196" stroke="white" stroke-width="0.5"/>
<line x1="560.648" y1="466.698" x2="560.648" y2="476.553" stroke="white" stroke-width="0.5"/>
<line x1="572.803" y1="455.528" x2="572.803" y2="465.384" stroke="white" stroke-width="0.5"/>
<line x1="556.049" y1="457.171" x2="556.049" y2="467.026" stroke="white" stroke-width="0.5"/>
<line x1="547.179" y1="471.954" x2="547.179" y2="481.809" stroke="white" stroke-width="0.5"/>
<line x1="569.189" y1="460.128" x2="569.189" y2="469.983" stroke="white" stroke-width="0.5"/>
<line x1="570.832" y1="458.485" x2="570.832" y2="468.34" stroke="white" stroke-width="0.5"/>
<line x1="566.89" y1="461.77" x2="566.89" y2="471.625" stroke="white" stroke-width="0.5"/>
<line x1="566.89" y1="457.171" x2="566.89" y2="467.026" stroke="white" stroke-width="0.5"/>
<line x1="564.919" y1="460.456" x2="564.919" y2="470.311" stroke="white" stroke-width="0.5"/>
<line x1="544.88" y1="456.514" x2="544.88" y2="466.369" stroke="white" stroke-width="0.5"/>
<line x1="562.291" y1="465.384" x2="562.291" y2="475.239" stroke="white" stroke-width="0.5"/>
<line x1="575.76" y1="451.586" x2="575.76" y2="461.442" stroke="white" stroke-width="0.5"/>
<line x1="551.778" y1="459.142" x2="551.778" y2="468.997" stroke="white" stroke-width="0.5"/>
<line x1="551.121" y1="458.485" x2="551.121" y2="468.34" stroke="white" stroke-width="0.5"/>
<line x1="568.204" y1="445.345" x2="568.204" y2="455.2" stroke="white" stroke-width="0.5"/>
<line x1="566.89" y1="445.673" x2="566.89" y2="455.529" stroke="white" stroke-width="0.5"/>
<line x1="558.02" y1="462.099" x2="558.02" y2="471.954" stroke="white" stroke-width="0.5"/>
<line x1="569.847" y1="449.287" x2="569.847" y2="459.142" stroke="white" stroke-width="0.5"/>
<line x1="559.663" y1="467.026" x2="559.663" y2="476.882" stroke="white" stroke-width="0.5"/>
<line x1="562.619" y1="450.272" x2="562.619" y2="460.128" stroke="white" stroke-width="0.5"/>
<line x1="563.933" y1="453.557" x2="563.933" y2="463.413" stroke="white" stroke-width="0.5"/>
<line x1="559.663" y1="456.186" x2="559.663" y2="466.041" stroke="white" stroke-width="0.5"/>
<line x1="574.117" y1="440.089" x2="574.117" y2="449.944" stroke="white" stroke-width="0.5"/>
<line x1="577.731" y1="443.702" x2="577.731" y2="453.557" stroke="white" stroke-width="0.5"/>
<line x1="563.933" y1="441.403" x2="563.933" y2="451.258" stroke="white" stroke-width="0.5"/>
<line x1="582.33" y1="422.349" x2="582.33" y2="432.204" stroke="white" stroke-width="0.5"/>
<line x1="575.76" y1="427.934" x2="575.76" y2="437.789" stroke="white" stroke-width="0.5"/>
<line x1="572.146" y1="441.731" x2="572.146" y2="451.586" stroke="white" stroke-width="0.5"/>
<line x1="553.093" y1="466.369" x2="553.093" y2="476.225" stroke="white" stroke-width="0.5"/>
<line x1="568.204" y1="435.161" x2="568.204" y2="445.016" stroke="white" stroke-width="0.5"/>
<line x1="550.136" y1="469.326" x2="550.136" y2="479.181" stroke="white" stroke-width="0.5"/>
<line x1="551.121" y1="471.297" x2="551.121" y2="481.152" stroke="white" stroke-width="0.5"/>
<line x1="565.576" y1="440.089" x2="565.576" y2="449.944" stroke="white" stroke-width="0.5"/>
<line x1="548.493" y1="460.128" x2="548.493" y2="469.983" stroke="white" stroke-width="0.5"/>
<line x1="547.179" y1="460.128" x2="547.179" y2="469.983" stroke="white" stroke-width="0.5"/>
<line x1="507.43" y1="451.586" x2="507.43" y2="461.442" stroke="white" stroke-width="0.5"/>
<line x1="513.671" y1="449.944" x2="513.671" y2="459.799" stroke="white" stroke-width="0.5"/>
<line x1="514.328" y1="455.2" x2="514.328" y2="465.055" stroke="white" stroke-width="0.5"/>
<line x1="515.642" y1="459.471" x2="515.642" y2="469.326" stroke="white" stroke-width="0.5"/>
<line x1="491.333" y1="437.46" x2="491.333" y2="447.316" stroke="white" stroke-width="0.5"/>
<line x1="517.942" y1="458.485" x2="517.942" y2="468.34" stroke="white" stroke-width="0.5"/>
<line x1="519.256" y1="458.485" x2="519.256" y2="468.34" stroke="white" stroke-width="0.5"/>
<line x1="517.942" y1="449.287" x2="517.942" y2="459.142" stroke="white" stroke-width="0.5"/>
<line x1="516.628" y1="456.514" x2="516.628" y2="466.369" stroke="white" stroke-width="0.5"/>
<line x1="504.802" y1="442.388" x2="504.802" y2="452.243" stroke="white" stroke-width="0.5"/>
<line x1="504.144" y1="441.731" x2="504.144" y2="451.586" stroke="white" stroke-width="0.5"/>
<line x1="511.043" y1="445.345" x2="511.043" y2="455.2" stroke="white" stroke-width="0.5"/>
<line x1="512.686" y1="450.272" x2="512.686" y2="460.128" stroke="white" stroke-width="0.5"/>
<line x1="497.246" y1="446.33" x2="497.246" y2="456.186" stroke="white" stroke-width="0.5"/>
<line x1="493.961" y1="441.403" x2="493.961" y2="451.258" stroke="white" stroke-width="0.5"/>
<line x1="506.115" y1="449.615" x2="506.115" y2="459.471" stroke="white" stroke-width="0.5"/>
<line x1="503.159" y1="452.572" x2="503.159" y2="462.427" stroke="white" stroke-width="0.5"/>
<line x1="509.729" y1="455.2" x2="509.729" y2="465.055" stroke="white" stroke-width="0.5"/>
<line x1="511.7" y1="457.171" x2="511.7" y2="467.026" stroke="white" stroke-width="0.5"/>
<line x1="501.516" y1="443.374" x2="501.516" y2="453.229" stroke="white" stroke-width="0.5"/>
<line x1="500.202" y1="443.374" x2="500.202" y2="453.229" stroke="white" stroke-width="0.5"/>
<line x1="497.246" y1="422.677" x2="497.246" y2="432.533" stroke="white" stroke-width="0.5"/>
<line x1="500.202" y1="430.562" x2="500.202" y2="440.417" stroke="white" stroke-width="0.5"/>
<line x1="484.434" y1="419.721" x2="484.434" y2="429.576" stroke="white" stroke-width="0.5"/>
<line x1="485.748" y1="420.706" x2="485.748" y2="430.562" stroke="white" stroke-width="0.5"/>
<line x1="485.091" y1="426.291" x2="485.091" y2="436.146" stroke="white" stroke-width="0.5"/>
<line x1="483.777" y1="422.349" x2="483.777" y2="432.204" stroke="white" stroke-width="0.5"/>
<line x1="482.463" y1="422.349" x2="482.463" y2="432.204" stroke="white" stroke-width="0.5"/>
<line x1="490.019" y1="426.291" x2="490.019" y2="436.146" stroke="white" stroke-width="0.5"/>
<line x1="491.333" y1="427.277" x2="491.333" y2="437.132" stroke="white" stroke-width="0.5"/>
<line x1="489.033" y1="428.591" x2="489.033" y2="438.446" stroke="white" stroke-width="0.5"/>
<line x1="489.033" y1="433.518" x2="489.033" y2="443.374" stroke="white" stroke-width="0.5"/>
<line x1="502.502" y1="437.46" x2="502.502" y2="447.316" stroke="white" stroke-width="0.5"/>
<line x1="494.618" y1="413.479" x2="494.618" y2="423.334" stroke="white" stroke-width="0.5"/>
<line x1="493.961" y1="412.822" x2="493.961" y2="422.677" stroke="white" stroke-width="0.5"/>
<line x1="486.733" y1="427.605" x2="486.733" y2="437.46" stroke="white" stroke-width="0.5"/>
<line x1="488.047" y1="427.277" x2="488.047" y2="437.132" stroke="white" stroke-width="0.5"/>
<line x1="495.932" y1="431.219" x2="495.932" y2="441.074" stroke="white" stroke-width="0.5"/>
<line x1="504.802" y1="441.074" x2="504.802" y2="450.929" stroke="white" stroke-width="0.5"/>
<line x1="497.903" y1="435.161" x2="497.903" y2="445.016" stroke="white" stroke-width="0.5"/>
<line x1="495.932" y1="420.706" x2="495.932" y2="430.562" stroke="white" stroke-width="0.5"/>
<line x1="492.975" y1="423.663" x2="492.975" y2="433.518" stroke="white" stroke-width="0.5"/>
<line x1="493.961" y1="425.634" x2="493.961" y2="435.489" stroke="white" stroke-width="0.5"/>
<line x1="493.961" y1="426.291" x2="493.961" y2="436.146" stroke="white" stroke-width="0.5"/>
<line x1="491.333" y1="414.465" x2="491.333" y2="424.32" stroke="white" stroke-width="0.5"/>
<line x1="490.019" y1="414.465" x2="490.019" y2="424.32" stroke="white" stroke-width="0.5"/>
<line x1="484.434" y1="405.595" x2="484.434" y2="415.45" stroke="white" stroke-width="0.5"/>
<line x1="484.434" y1="393.769" x2="484.434" y2="403.624" stroke="white" stroke-width="0.5"/>
<line x1="476.55" y1="406.58" x2="476.55" y2="416.436" stroke="white" stroke-width="0.5"/>
<line x1="492.318" y1="402.638" x2="492.318" y2="412.494" stroke="white" stroke-width="0.5"/>
<line x1="481.806" y1="396.397" x2="481.806" y2="406.252" stroke="white" stroke-width="0.5"/>
<line x1="483.12" y1="394.426" x2="483.12" y2="404.281" stroke="white" stroke-width="0.5"/>
<line x1="488.047" y1="399.353" x2="488.047" y2="409.209" stroke="white" stroke-width="0.5"/>
<line x1="486.733" y1="395.74" x2="486.733" y2="405.595" stroke="white" stroke-width="0.5"/>
<line x1="489.69" y1="404.281" x2="489.69" y2="414.136" stroke="white" stroke-width="0.5"/>
<line x1="488.047" y1="411.508" x2="488.047" y2="421.363" stroke="white" stroke-width="0.5"/>
<line x1="485.748" y1="409.866" x2="485.748" y2="419.721" stroke="white" stroke-width="0.5"/>
<line x1="478.521" y1="413.479" x2="478.521" y2="423.334" stroke="white" stroke-width="0.5"/>
<line x1="480.163" y1="416.436" x2="480.163" y2="426.291" stroke="white" stroke-width="0.5"/>
<line x1="483.12" y1="403.624" x2="483.12" y2="413.479" stroke="white" stroke-width="0.5"/>
<line x1="480.163" y1="406.58" x2="480.163" y2="416.436" stroke="white" stroke-width="0.5"/>
<line x1="481.149" y1="408.552" x2="481.149" y2="418.407" stroke="white" stroke-width="0.5"/>
<line x1="478.521" y1="397.382" x2="478.521" y2="407.238" stroke="white" stroke-width="0.5"/>
<line x1="476.55" y1="397.382" x2="476.55" y2="407.238" stroke="white" stroke-width="0.5"/>
<line x1="571.489" y1="430.89" x2="571.489" y2="440.746" stroke="white" stroke-width="0.5"/>
<line x1="570.175" y1="420.049" x2="570.175" y2="429.905" stroke="white" stroke-width="0.5"/>
<line x1="577.731" y1="433.847" x2="577.731" y2="443.702" stroke="white" stroke-width="0.5"/>
<line x1="574.117" y1="420.706" x2="574.117" y2="430.562" stroke="white" stroke-width="0.5"/>
<line x1="579.373" y1="438.774" x2="579.373" y2="448.63" stroke="white" stroke-width="0.5"/>
<line x1="565.904" y1="424.977" x2="565.904" y2="434.832" stroke="white" stroke-width="0.5"/>
<line x1="579.373" y1="427.934" x2="579.373" y2="437.789" stroke="white" stroke-width="0.5"/>
<line x1="577.731" y1="420.378" x2="577.731" y2="430.233" stroke="white" stroke-width="0.5"/>
<circle r="12" transform="matrix(1 0 0 -1 135 540)" fill="#C4C4C4"/>
<circle r="12" transform="matrix(1 0 0 -1 108 516)" fill="#C4C4C4"/>
<circle r="12" transform="matrix(1 0 0 -1 162 560)" fill="#C4C4C4"/>
<circle r="12" transform="matrix(1 0 0 -1 189 578)" fill="#C4C4C4"/>
</svg>
