<svg width="437" height="436" viewBox="0 0 437 436" fill="none" xmlns="http://www.w3.org/2000/svg">
<circle cx="219" cy="218" r="218" fill="#3D5C61" fill-opacity="0.8"/>
<path d="M192.672 110.6V146H185.208V131.264H172.392V146H164.928V110.6H172.392V125.48H185.208V110.6H192.672ZM224.769 137.96C224.641 139.4 224.033 140.784 222.945 142.112C221.873 143.424 220.353 144.496 218.385 145.328C216.433 146.16 214.073 146.576 211.305 146.576C208.489 146.576 206.033 146.016 203.937 144.896C201.841 143.76 200.217 142.2 199.065 140.216C197.913 138.216 197.337 135.912 197.337 133.304C197.337 130.664 197.921 128.352 199.089 126.368C200.273 124.368 201.913 122.816 204.009 121.712C206.121 120.592 208.561 120.032 211.329 120.032C214.161 120.032 216.609 120.6 218.673 121.736C220.737 122.856 222.329 124.432 223.449 126.464C224.569 128.48 225.129 130.832 225.129 133.52C225.129 134.352 225.097 135.008 225.033 135.488H204.873C205.209 137.216 205.937 138.56 207.057 139.52C208.177 140.464 209.697 140.936 211.617 140.936C213.617 140.936 215.057 140.616 215.937 139.976C216.833 139.32 217.329 138.648 217.425 137.96H224.769ZM211.425 125.6C209.713 125.6 208.297 126.032 207.177 126.896C206.073 127.76 205.329 128.984 204.945 130.568H217.521C217.409 129.304 216.857 128.16 215.865 127.136C214.889 126.112 213.409 125.6 211.425 125.6ZM237.483 108.488V146H230.139V108.488H237.483ZM251.124 108.488V146H243.78V108.488H251.124ZM269.828 146.552C267.076 146.552 264.652 145.984 262.556 144.848C260.46 143.712 258.82 142.152 257.636 140.168C256.468 138.168 255.884 135.864 255.884 133.256C255.884 130.664 256.468 128.376 257.636 126.392C258.82 124.392 260.46 122.84 262.556 121.736C264.652 120.616 267.076 120.056 269.828 120.056C272.58 120.056 275.004 120.616 277.1 121.736C279.196 122.84 280.828 124.392 281.996 126.392C283.18 128.376 283.772 130.664 283.772 133.256C283.772 135.864 283.18 138.168 281.996 140.168C280.828 142.152 279.196 143.712 277.1 144.848C275.004 145.984 272.58 146.552 269.828 146.552ZM269.828 140.648C271.764 140.648 273.316 139.976 274.484 138.632C275.652 137.288 276.236 135.496 276.236 133.256C276.236 131.016 275.652 129.24 274.484 127.928C273.316 126.616 271.764 125.96 269.828 125.96C267.892 125.96 266.34 126.616 265.172 127.928C264.004 129.24 263.42 131.016 263.42 133.256C263.42 135.496 264.004 137.288 265.172 138.632C266.34 139.976 267.892 140.648 269.828 140.648ZM295.716 110.648L294.228 136.088H289.764L288.276 110.648H295.716ZM292.044 146.72C290.94 146.72 290.004 146.336 289.236 145.568C288.468 144.8 288.084 143.864 288.084 142.76C288.084 141.672 288.468 140.744 289.236 139.976C290.004 139.208 290.94 138.824 292.044 138.824C293.132 138.824 294.06 139.208 294.828 139.976C295.596 140.744 295.98 141.672 295.98 142.76C295.98 143.864 295.596 144.8 294.828 145.568C294.06 146.336 293.132 146.72 292.044 146.72Z" fill="white"/>
<path d="M1 211.835L50.8347 120.536L85.68 211.835L112.155 89L147 201.907" stroke="white" stroke-width="0.910978"/>
<path d="M38.1813 143.312L44.2994 156.16L48.582 147.832L53.4765 156.16V151.639L59.5946 156.16V143.312" stroke="white" stroke-width="0.910978"/>
<path d="M105.536 119.952L107.77 130.281L110.411 124.719L112.646 139.419L116.708 130.281L120.974 134.651L118.943 124.719L124.224 127.699" stroke="white" stroke-width="0.910978"/>
<path d="M362.592 275.826V295.726C362.592 295.726 354.609 292.24 351.124 287.743C347.639 283.246 344.604 264.471 344.604 264.471C343.817 260.086 333.811 250.643 331 264.471C331.714 279.072 342.692 298.087 345.84 301.347C348.988 304.607 362.592 312.702 362.592 312.702C362.592 312.702 361.355 353.962 364.84 353.962H375.97C381.142 353.962 380.467 320.909 380.467 320.909C380.467 320.909 394.633 314.163 400.029 307.755C405.426 301.347 405.426 295.726 405.426 295.726C405.426 295.726 408.911 280.098 405.426 276.838C401.941 273.578 396.994 272.566 395.083 275.826C393.171 279.087 390.96 279.728 391.373 287.743C391.786 295.758 390.314 304.087 380.467 301.347V275.826C380.467 271.554 388.925 263.328 380.467 251.542C372.01 239.756 366.009 254.242 366.077 257.613C366.144 260.985 362.592 275.826 362.592 275.826Z" stroke="white" stroke-width="0.342229"/>
<line x1="369.621" y1="317.154" x2="369.621" y2="323.899" stroke="white" stroke-width="0.342229"/>
<line x1="369.171" y1="323.45" x2="369.171" y2="330.195" stroke="white" stroke-width="0.342229"/>
<line x1="368.047" y1="311.532" x2="368.047" y2="318.278" stroke="white" stroke-width="0.342229"/>
<line x1="365.573" y1="305.461" x2="365.573" y2="312.207" stroke="white" stroke-width="0.342229"/>
<line x1="364.674" y1="310.408" x2="364.674" y2="317.154" stroke="white" stroke-width="0.342229"/>
<line x1="363.1" y1="309.509" x2="363.1" y2="316.254" stroke="white" stroke-width="0.342229"/>
<line x1="370.97" y1="306.361" x2="370.97" y2="313.106" stroke="white" stroke-width="0.342229"/>
<line x1="366.698" y1="316.254" x2="366.698" y2="323" stroke="white" stroke-width="0.342229"/>
<line x1="364.899" y1="318.278" x2="364.899" y2="325.023" stroke="white" stroke-width="0.342229"/>
<line x1="370.97" y1="318.278" x2="370.97" y2="325.023" stroke="white" stroke-width="0.342229"/>
<line x1="372.993" y1="320.976" x2="372.993" y2="327.722" stroke="white" stroke-width="0.342229"/>
<line x1="368.047" y1="321.651" x2="368.047" y2="328.396" stroke="white" stroke-width="0.342229"/>
<line x1="366.248" y1="323.45" x2="366.248" y2="330.195" stroke="white" stroke-width="0.342229"/>
<line x1="372.094" y1="314.231" x2="372.094" y2="320.976" stroke="white" stroke-width="0.342229"/>
<line x1="370.97" y1="271.958" x2="370.97" y2="278.704" stroke="white" stroke-width="0.342229"/>
<line x1="377.041" y1="269.935" x2="377.041" y2="276.68" stroke="white" stroke-width="0.342229"/>
<line x1="369.396" y1="269.26" x2="369.396" y2="276.006" stroke="white" stroke-width="0.342229"/>
<line x1="375.467" y1="267.237" x2="375.467" y2="273.982" stroke="white" stroke-width="0.342229"/>
<line x1="368.047" y1="265.213" x2="368.047" y2="271.958" stroke="white" stroke-width="0.342229"/>
<line x1="374.118" y1="263.189" x2="374.118" y2="269.935" stroke="white" stroke-width="0.342229"/>
<line x1="366.248" y1="268.586" x2="366.248" y2="275.331" stroke="white" stroke-width="0.342229"/>
<line x1="372.319" y1="266.562" x2="372.319" y2="273.308" stroke="white" stroke-width="0.342229"/>
<line x1="372.993" y1="263.864" x2="372.993" y2="270.609" stroke="white" stroke-width="0.342229"/>
<line x1="372.993" y1="263.864" x2="372.993" y2="270.609" stroke="white" stroke-width="0.342229"/>
<line x1="378.39" y1="262.065" x2="378.39" y2="268.811" stroke="white" stroke-width="0.342229"/>
<line x1="368.047" y1="273.982" x2="368.047" y2="280.728" stroke="white" stroke-width="0.342229"/>
<line x1="374.118" y1="271.958" x2="374.118" y2="278.704" stroke="white" stroke-width="0.342229"/>
<line x1="366.248" y1="276.006" x2="366.248" y2="282.751" stroke="white" stroke-width="0.342229"/>
<line x1="365.124" y1="275.106" x2="365.124" y2="281.852" stroke="white" stroke-width="0.342229"/>
<line x1="363.999" y1="273.982" x2="363.999" y2="280.728" stroke="white" stroke-width="0.342229"/>
<line x1="372.319" y1="273.982" x2="372.319" y2="280.728" stroke="white" stroke-width="0.342229"/>
<line x1="372.319" y1="276.006" x2="372.319" y2="282.751" stroke="white" stroke-width="0.342229"/>
<line x1="378.39" y1="273.982" x2="378.39" y2="280.728" stroke="white" stroke-width="0.342229"/>
<line x1="374.343" y1="278.704" x2="374.343" y2="285.45" stroke="white" stroke-width="0.342229"/>
<line x1="380.414" y1="276.68" x2="380.414" y2="283.426" stroke="white" stroke-width="0.342229"/>
<line x1="369.396" y1="279.379" x2="369.396" y2="286.124" stroke="white" stroke-width="0.342229"/>
<line x1="375.467" y1="277.355" x2="375.467" y2="284.101" stroke="white" stroke-width="0.342229"/>
<line x1="373.443" y1="271.958" x2="373.443" y2="278.704" stroke="white" stroke-width="0.342229"/>
<line x1="379.514" y1="269.935" x2="379.514" y2="276.68" stroke="white" stroke-width="0.342229"/>
<line x1="376.141" y1="331.319" x2="376.141" y2="338.065" stroke="white" stroke-width="0.342229"/>
<line x1="374.567" y1="328.621" x2="374.567" y2="335.367" stroke="white" stroke-width="0.342229"/>
<line x1="373.443" y1="324.574" x2="373.443" y2="331.319" stroke="white" stroke-width="0.342229"/>
<line x1="371.419" y1="327.947" x2="371.419" y2="334.692" stroke="white" stroke-width="0.342229"/>
<line x1="377.49" y1="323.45" x2="377.49" y2="330.195" stroke="white" stroke-width="0.342229"/>
<line x1="373.218" y1="333.343" x2="373.218" y2="340.089" stroke="white" stroke-width="0.342229"/>
<line x1="372.319" y1="333.343" x2="372.319" y2="340.089" stroke="white" stroke-width="0.342229"/>
<line x1="371.419" y1="335.367" x2="371.419" y2="342.112" stroke="white" stroke-width="0.342229"/>
<line x1="377.49" y1="335.367" x2="377.49" y2="342.112" stroke="white" stroke-width="0.342229"/>
<line x1="379.514" y1="338.065" x2="379.514" y2="344.81" stroke="white" stroke-width="0.342229"/>
<line x1="374.567" y1="338.739" x2="374.567" y2="345.485" stroke="white" stroke-width="0.342229"/>
<line x1="376.141" y1="338.964" x2="376.141" y2="345.71" stroke="white" stroke-width="0.342229"/>
<line x1="376.816" y1="341.438" x2="376.816" y2="348.183" stroke="white" stroke-width="0.342229"/>
<line x1="378.165" y1="341.438" x2="378.165" y2="348.183" stroke="white" stroke-width="0.342229"/>
<line x1="373.443" y1="338.739" x2="373.443" y2="345.485" stroke="white" stroke-width="0.342229"/>
<line x1="376.141" y1="344.81" x2="376.141" y2="351.556" stroke="white" stroke-width="0.342229"/>
<line x1="378.615" y1="331.319" x2="378.615" y2="338.065" stroke="white" stroke-width="0.342229"/>
<line x1="368.946" y1="338.964" x2="368.946" y2="345.71" stroke="white" stroke-width="0.342229"/>
<line x1="367.372" y1="336.266" x2="367.372" y2="343.012" stroke="white" stroke-width="0.342229"/>
<line x1="366.023" y1="332.219" x2="366.023" y2="338.964" stroke="white" stroke-width="0.342229"/>
<line x1="364.224" y1="335.592" x2="364.224" y2="342.337" stroke="white" stroke-width="0.342229"/>
<line x1="370.295" y1="331.094" x2="370.295" y2="337.84" stroke="white" stroke-width="0.342229"/>
<line x1="368.047" y1="329.745" x2="368.047" y2="336.491" stroke="white" stroke-width="0.342229"/>
<line x1="366.023" y1="340.988" x2="366.023" y2="347.733" stroke="white" stroke-width="0.342229"/>
<line x1="364.224" y1="343.012" x2="364.224" y2="349.757" stroke="white" stroke-width="0.342229"/>
<line x1="370.295" y1="343.012" x2="370.295" y2="349.757" stroke="white" stroke-width="0.342229"/>
<line x1="369.171" y1="346.384" x2="369.171" y2="353.13" stroke="white" stroke-width="0.342229"/>
<line x1="372.319" y1="345.71" x2="372.319" y2="352.455" stroke="white" stroke-width="0.342229"/>
<line x1="373.893" y1="345.71" x2="373.893" y2="352.455" stroke="white" stroke-width="0.342229"/>
<line x1="367.372" y1="346.384" x2="367.372" y2="353.13" stroke="white" stroke-width="0.342229"/>
<line x1="371.419" y1="338.964" x2="371.419" y2="345.71" stroke="white" stroke-width="0.342229"/>
<line x1="373.893" y1="287.698" x2="373.893" y2="294.444" stroke="white" stroke-width="0.342229"/>
<line x1="376.816" y1="281.852" x2="376.816" y2="288.598" stroke="white" stroke-width="0.342229"/>
<line x1="375.017" y1="257.118" x2="375.017" y2="263.864" stroke="white" stroke-width="0.342229"/>
<line x1="376.816" y1="308.834" x2="376.816" y2="315.58" stroke="white" stroke-width="0.342229"/>
<line x1="367.822" y1="299.166" x2="367.822" y2="305.911" stroke="white" stroke-width="0.342229"/>
<line x1="370.52" y1="285.674" x2="370.52" y2="292.42" stroke="white" stroke-width="0.342229"/>
<line x1="373.443" y1="254.42" x2="373.443" y2="261.166" stroke="white" stroke-width="0.342229"/>
<line x1="375.242" y1="306.136" x2="375.242" y2="312.882" stroke="white" stroke-width="0.342229"/>
<line x1="366.248" y1="296.467" x2="366.248" y2="303.213" stroke="white" stroke-width="0.342229"/>
<line x1="364.674" y1="281.627" x2="364.674" y2="288.373" stroke="white" stroke-width="0.342229"/>
<line x1="372.094" y1="250.373" x2="372.094" y2="257.118" stroke="white" stroke-width="0.342229"/>
<line x1="373.893" y1="302.089" x2="373.893" y2="308.834" stroke="white" stroke-width="0.342229"/>
<line x1="364.899" y1="292.42" x2="364.899" y2="299.166" stroke="white" stroke-width="0.342229"/>
<line x1="367.372" y1="285" x2="367.372" y2="291.745" stroke="white" stroke-width="0.342229"/>
<line x1="370.295" y1="253.745" x2="370.295" y2="260.491" stroke="white" stroke-width="0.342229"/>
<line x1="372.094" y1="305.461" x2="372.094" y2="312.207" stroke="white" stroke-width="0.342229"/>
<line x1="363.1" y1="295.793" x2="363.1" y2="302.538" stroke="white" stroke-width="0.342229"/>
<line x1="373.443" y1="280.503" x2="373.443" y2="287.248" stroke="white" stroke-width="0.342229"/>
<line x1="376.366" y1="249.249" x2="376.366" y2="255.994" stroke="white" stroke-width="0.342229"/>
<line x1="378.165" y1="300.964" x2="378.165" y2="307.71" stroke="white" stroke-width="0.342229"/>
<line x1="369.171" y1="291.296" x2="369.171" y2="298.041" stroke="white" stroke-width="0.342229"/>
<line x1="369.171" y1="290.396" x2="369.171" y2="297.142" stroke="white" stroke-width="0.342229"/>
<line x1="380.414" y1="257.793" x2="380.414" y2="264.538" stroke="white" stroke-width="0.342229"/>
<line x1="370.745" y1="263.639" x2="370.745" y2="270.385" stroke="white" stroke-width="0.342229"/>
<line x1="369.171" y1="259.367" x2="369.171" y2="266.112" stroke="white" stroke-width="0.342229"/>
<line x1="371.195" y1="259.367" x2="371.195" y2="266.112" stroke="white" stroke-width="0.342229"/>
<line x1="373.893" y1="310.858" x2="373.893" y2="317.603" stroke="white" stroke-width="0.342229"/>
<line x1="363.775" y1="302.089" x2="363.775" y2="308.834" stroke="white" stroke-width="0.342229"/>
<line x1="375.242" y1="326.373" x2="375.242" y2="333.118" stroke="white" stroke-width="0.342229"/>
<line x1="375.242" y1="291.745" x2="375.242" y2="298.491" stroke="white" stroke-width="0.342229"/>
<line x1="378.165" y1="285.899" x2="378.165" y2="292.645" stroke="white" stroke-width="0.342229"/>
<line x1="376.366" y1="261.166" x2="376.366" y2="267.911" stroke="white" stroke-width="0.342229"/>
<line x1="378.165" y1="312.881" x2="378.165" y2="319.627" stroke="white" stroke-width="0.342229"/>
<line x1="369.171" y1="303.213" x2="369.171" y2="309.958" stroke="white" stroke-width="0.342229"/>
<line x1="377.266" y1="294.444" x2="377.266" y2="301.189" stroke="white" stroke-width="0.342229"/>
<line x1="380.189" y1="288.598" x2="380.189" y2="295.343" stroke="white" stroke-width="0.342229"/>
<line x1="378.39" y1="263.864" x2="378.39" y2="270.609" stroke="white" stroke-width="0.342229"/>
<line x1="380.189" y1="315.58" x2="380.189" y2="322.325" stroke="white" stroke-width="0.342229"/>
<line x1="370.295" y1="306.586" x2="370.295" y2="313.331" stroke="white" stroke-width="0.342229"/>
<line x1="372.319" y1="295.118" x2="372.319" y2="301.864" stroke="white" stroke-width="0.342229"/>
<line x1="375.242" y1="289.272" x2="375.242" y2="296.018" stroke="white" stroke-width="0.342229"/>
<line x1="375.242" y1="316.254" x2="375.242" y2="323" stroke="white" stroke-width="0.342229"/>
<line x1="377.49" y1="317.603" x2="377.49" y2="324.349" stroke="white" stroke-width="0.342229"/>
<line x1="376.366" y1="287.698" x2="376.366" y2="294.444" stroke="white" stroke-width="0.342229"/>
<line x1="379.289" y1="281.852" x2="379.289" y2="288.598" stroke="white" stroke-width="0.342229"/>
<line x1="377.49" y1="257.118" x2="377.49" y2="263.864" stroke="white" stroke-width="0.342229"/>
<path d="M362.592 275.826V295.726C362.592 295.726 354.609 292.24 351.124 287.743C347.639 283.246 344.604 264.471 344.604 264.471C343.817 260.086 333.811 250.643 331 264.471C331.714 279.072 342.692 298.087 345.84 301.347C348.988 304.607 362.592 312.702 362.592 312.702C362.592 312.702 361.355 353.962 364.84 353.962H375.97C381.142 353.962 380.467 320.909 380.467 320.909C380.467 320.909 394.633 314.163 400.029 307.755C405.426 301.347 405.426 295.726 405.426 295.726C405.426 295.726 408.911 280.098 405.426 276.838C401.941 273.578 396.994 272.566 395.083 275.826C393.171 279.087 390.96 279.728 391.373 287.743C391.786 295.758 390.314 304.087 380.467 301.347V275.826C380.467 271.554 388.925 263.328 380.467 251.542C372.01 239.756 366.009 254.242 366.077 257.613C366.144 260.985 362.592 275.826 362.592 275.826Z" stroke="white"/>
<line x1="370.97" y1="271.958" x2="370.97" y2="278.704" stroke="white" stroke-width="0.342229"/>
<line x1="377.041" y1="269.935" x2="377.041" y2="276.68" stroke="white" stroke-width="0.342229"/>
<line x1="369.396" y1="269.26" x2="369.396" y2="276.006" stroke="white" stroke-width="0.342229"/>
<line x1="375.467" y1="267.237" x2="375.467" y2="273.982" stroke="white" stroke-width="0.342229"/>
<line x1="368.047" y1="265.213" x2="368.047" y2="271.958" stroke="white" stroke-width="0.342229"/>
<line x1="374.118" y1="263.189" x2="374.118" y2="269.935" stroke="white" stroke-width="0.342229"/>
<line x1="372.319" y1="266.562" x2="372.319" y2="273.308" stroke="white" stroke-width="0.342229"/>
<line x1="372.993" y1="263.864" x2="372.993" y2="270.609" stroke="white" stroke-width="0.342229"/>
<line x1="368.047" y1="273.982" x2="368.047" y2="280.728" stroke="white" stroke-width="0.342229"/>
<line x1="374.118" y1="271.958" x2="374.118" y2="278.704" stroke="white" stroke-width="0.342229"/>
<line x1="372.319" y1="273.982" x2="372.319" y2="280.728" stroke="white" stroke-width="0.342229"/>
<line x1="372.319" y1="276.006" x2="372.319" y2="282.751" stroke="white" stroke-width="0.342229"/>
<line x1="374.343" y1="278.704" x2="374.343" y2="285.45" stroke="white" stroke-width="0.342229"/>
<line x1="369.396" y1="279.379" x2="369.396" y2="286.124" stroke="white" stroke-width="0.342229"/>
<line x1="375.467" y1="277.355" x2="375.467" y2="284.101" stroke="white" stroke-width="0.342229"/>
<line x1="373.443" y1="271.958" x2="373.443" y2="278.704" stroke="white" stroke-width="0.342229"/>
<line x1="375.017" y1="257.118" x2="375.017" y2="263.864" stroke="white" stroke-width="0.342229"/>
<line x1="370.745" y1="263.639" x2="370.745" y2="270.385" stroke="white" stroke-width="0.342229"/>
<line x1="369.171" y1="259.367" x2="369.171" y2="266.112" stroke="white" stroke-width="0.342229"/>
<line x1="371.195" y1="259.367" x2="371.195" y2="266.112" stroke="white" stroke-width="0.342229"/>
<line x1="376.366" y1="261.166" x2="376.366" y2="267.911" stroke="white" stroke-width="0.342229"/>
<line x1="377.49" y1="257.118" x2="377.49" y2="263.864" stroke="white" stroke-width="0.342229"/>
<line x1="379.289" y1="308.834" x2="379.289" y2="315.58" stroke="white" stroke-width="0.342229"/>
<line x1="370.295" y1="299.166" x2="370.295" y2="305.911" stroke="white" stroke-width="0.342229"/>
<line x1="386.035" y1="308.834" x2="386.035" y2="315.58" stroke="white" stroke-width="0.342229"/>
<line x1="390.307" y1="307.71" x2="390.307" y2="314.456" stroke="white" stroke-width="0.342229"/>
<line x1="398.627" y1="300.065" x2="398.627" y2="306.81" stroke="white" stroke-width="0.342229"/>
<line x1="387.159" y1="301.189" x2="387.159" y2="307.935" stroke="white" stroke-width="0.342229"/>
<line x1="381.088" y1="311.307" x2="381.088" y2="318.053" stroke="white" stroke-width="0.342229"/>
<line x1="396.153" y1="303.213" x2="396.153" y2="309.958" stroke="white" stroke-width="0.342229"/>
<line x1="397.277" y1="302.089" x2="397.277" y2="308.834" stroke="white" stroke-width="0.342229"/>
<line x1="394.579" y1="304.337" x2="394.579" y2="311.083" stroke="white" stroke-width="0.342229"/>
<line x1="394.579" y1="301.189" x2="394.579" y2="307.935" stroke="white" stroke-width="0.342229"/>
<line x1="393.23" y1="303.438" x2="393.23" y2="310.183" stroke="white" stroke-width="0.342229"/>
<line x1="379.514" y1="300.74" x2="379.514" y2="307.485" stroke="white" stroke-width="0.342229"/>
<line x1="391.431" y1="306.811" x2="391.431" y2="313.556" stroke="white" stroke-width="0.342229"/>
<line x1="400.65" y1="297.367" x2="400.65" y2="304.112" stroke="white" stroke-width="0.342229"/>
<line x1="384.236" y1="302.538" x2="384.236" y2="309.284" stroke="white" stroke-width="0.342229"/>
<line x1="383.786" y1="302.089" x2="383.786" y2="308.834" stroke="white" stroke-width="0.342229"/>
<line x1="395.479" y1="293.095" x2="395.479" y2="299.84" stroke="white" stroke-width="0.342229"/>
<line x1="394.579" y1="293.319" x2="394.579" y2="300.065" stroke="white" stroke-width="0.342229"/>
<line x1="388.508" y1="304.562" x2="388.508" y2="311.307" stroke="white" stroke-width="0.342229"/>
<line x1="396.603" y1="295.793" x2="396.603" y2="302.538" stroke="white" stroke-width="0.342229"/>
<line x1="389.632" y1="307.935" x2="389.632" y2="314.68" stroke="white" stroke-width="0.342229"/>
<line x1="391.656" y1="296.467" x2="391.656" y2="303.213" stroke="white" stroke-width="0.342229"/>
<line x1="392.556" y1="298.716" x2="392.556" y2="305.461" stroke="white" stroke-width="0.342229"/>
<line x1="389.632" y1="300.515" x2="389.632" y2="307.26" stroke="white" stroke-width="0.342229"/>
<line x1="399.526" y1="289.497" x2="399.526" y2="296.242" stroke="white" stroke-width="0.342229"/>
<line x1="401.999" y1="291.97" x2="401.999" y2="298.716" stroke="white" stroke-width="0.342229"/>
<line x1="392.556" y1="290.396" x2="392.556" y2="297.142" stroke="white" stroke-width="0.342229"/>
<line x1="405.147" y1="277.355" x2="405.147" y2="284.101" stroke="white" stroke-width="0.342229"/>
<line x1="400.65" y1="281.177" x2="400.65" y2="287.923" stroke="white" stroke-width="0.342229"/>
<line x1="398.177" y1="290.621" x2="398.177" y2="297.367" stroke="white" stroke-width="0.342229"/>
<line x1="385.135" y1="307.485" x2="385.135" y2="314.231" stroke="white" stroke-width="0.342229"/>
<line x1="395.479" y1="286.124" x2="395.479" y2="292.87" stroke="white" stroke-width="0.342229"/>
<line x1="383.112" y1="309.509" x2="383.112" y2="316.254" stroke="white" stroke-width="0.342229"/>
<line x1="383.786" y1="310.858" x2="383.786" y2="317.603" stroke="white" stroke-width="0.342229"/>
<line x1="393.68" y1="289.497" x2="393.68" y2="296.242" stroke="white" stroke-width="0.342229"/>
<line x1="381.987" y1="303.213" x2="381.987" y2="309.958" stroke="white" stroke-width="0.342229"/>
<line x1="381.088" y1="303.213" x2="381.088" y2="309.958" stroke="white" stroke-width="0.342229"/>
<line x1="353.881" y1="297.367" x2="353.881" y2="304.112" stroke="white" stroke-width="0.342229"/>
<line x1="358.153" y1="296.243" x2="358.153" y2="302.988" stroke="white" stroke-width="0.342229"/>
<line x1="358.603" y1="299.84" x2="358.603" y2="306.586" stroke="white" stroke-width="0.342229"/>
<line x1="359.502" y1="302.763" x2="359.502" y2="309.509" stroke="white" stroke-width="0.342229"/>
<line x1="342.863" y1="287.698" x2="342.863" y2="294.444" stroke="white" stroke-width="0.342229"/>
<line x1="361.076" y1="302.089" x2="361.076" y2="308.834" stroke="white" stroke-width="0.342229"/>
<line x1="361.976" y1="302.089" x2="361.976" y2="308.834" stroke="white" stroke-width="0.342229"/>
<line x1="361.076" y1="295.793" x2="361.076" y2="302.538" stroke="white" stroke-width="0.342229"/>
<line x1="360.177" y1="300.74" x2="360.177" y2="307.485" stroke="white" stroke-width="0.342229"/>
<line x1="352.082" y1="291.071" x2="352.082" y2="297.816" stroke="white" stroke-width="0.342229"/>
<line x1="351.633" y1="290.621" x2="351.633" y2="297.367" stroke="white" stroke-width="0.342229"/>
<line x1="356.354" y1="293.095" x2="356.354" y2="299.84" stroke="white" stroke-width="0.342229"/>
<line x1="357.479" y1="296.467" x2="357.479" y2="303.213" stroke="white" stroke-width="0.342229"/>
<line x1="346.911" y1="293.769" x2="346.911" y2="300.515" stroke="white" stroke-width="0.342229"/>
<line x1="344.662" y1="290.396" x2="344.662" y2="297.142" stroke="white" stroke-width="0.342229"/>
<line x1="352.982" y1="296.018" x2="352.982" y2="302.763" stroke="white" stroke-width="0.342229"/>
<line x1="350.958" y1="298.041" x2="350.958" y2="304.787" stroke="white" stroke-width="0.342229"/>
<line x1="355.455" y1="299.84" x2="355.455" y2="306.586" stroke="white" stroke-width="0.342229"/>
<line x1="356.804" y1="301.189" x2="356.804" y2="307.935" stroke="white" stroke-width="0.342229"/>
<line x1="349.834" y1="291.745" x2="349.834" y2="298.491" stroke="white" stroke-width="0.342229"/>
<line x1="348.934" y1="291.745" x2="348.934" y2="298.491" stroke="white" stroke-width="0.342229"/>
<line x1="346.911" y1="277.58" x2="346.911" y2="284.325" stroke="white" stroke-width="0.342229"/>
<line x1="348.934" y1="282.976" x2="348.934" y2="289.722" stroke="white" stroke-width="0.342229"/>
<line x1="338.141" y1="275.556" x2="338.141" y2="282.302" stroke="white" stroke-width="0.342229"/>
<line x1="338.591" y1="280.053" x2="338.591" y2="286.799" stroke="white" stroke-width="0.342229"/>
<line x1="336.792" y1="277.355" x2="336.792" y2="284.101" stroke="white" stroke-width="0.342229"/>
<line x1="341.964" y1="280.053" x2="341.964" y2="286.799" stroke="white" stroke-width="0.342229"/>
<line x1="342.863" y1="280.728" x2="342.863" y2="287.473" stroke="white" stroke-width="0.342229"/>
<line x1="341.289" y1="281.627" x2="341.289" y2="288.373" stroke="white" stroke-width="0.342229"/>
<line x1="341.289" y1="285" x2="341.289" y2="291.745" stroke="white" stroke-width="0.342229"/>
<line x1="350.508" y1="287.698" x2="350.508" y2="294.444" stroke="white" stroke-width="0.342229"/>
<line x1="345.112" y1="271.284" x2="345.112" y2="278.029" stroke="white" stroke-width="0.342229"/>
<line x1="344.662" y1="270.834" x2="344.662" y2="277.58" stroke="white" stroke-width="0.342229"/>
<line x1="339.715" y1="280.953" x2="339.715" y2="287.698" stroke="white" stroke-width="0.342229"/>
<line x1="340.615" y1="280.728" x2="340.615" y2="287.473" stroke="white" stroke-width="0.342229"/>
<line x1="346.011" y1="283.426" x2="346.011" y2="290.171" stroke="white" stroke-width="0.342229"/>
<line x1="352.082" y1="290.171" x2="352.082" y2="296.917" stroke="white" stroke-width="0.342229"/>
<line x1="347.36" y1="286.124" x2="347.36" y2="292.87" stroke="white" stroke-width="0.342229"/>
<line x1="346.011" y1="276.231" x2="346.011" y2="282.976" stroke="white" stroke-width="0.342229"/>
<line x1="343.988" y1="278.254" x2="343.988" y2="285" stroke="white" stroke-width="0.342229"/>
<line x1="344.662" y1="279.603" x2="344.662" y2="286.349" stroke="white" stroke-width="0.342229"/>
<line x1="344.662" y1="280.053" x2="344.662" y2="286.799" stroke="white" stroke-width="0.342229"/>
<line x1="342.863" y1="271.958" x2="342.863" y2="278.704" stroke="white" stroke-width="0.342229"/>
<line x1="341.964" y1="271.958" x2="341.964" y2="278.704" stroke="white" stroke-width="0.342229"/>
<line x1="338.141" y1="265.888" x2="338.141" y2="272.633" stroke="white" stroke-width="0.342229"/>
<line x1="338.141" y1="257.793" x2="338.141" y2="264.538" stroke="white" stroke-width="0.342229"/>
<line x1="332.745" y1="266.562" x2="332.745" y2="273.308" stroke="white" stroke-width="0.342229"/>
<line x1="343.538" y1="263.864" x2="343.538" y2="270.609" stroke="white" stroke-width="0.342229"/>
<line x1="336.343" y1="259.592" x2="336.343" y2="266.337" stroke="white" stroke-width="0.342229"/>
<line x1="337.242" y1="258.243" x2="337.242" y2="264.988" stroke="white" stroke-width="0.342229"/>
<line x1="340.615" y1="261.615" x2="340.615" y2="268.361" stroke="white" stroke-width="0.342229"/>
<line x1="339.715" y1="259.142" x2="339.715" y2="265.888" stroke="white" stroke-width="0.342229"/>
<line x1="341.739" y1="264.988" x2="341.739" y2="271.734" stroke="white" stroke-width="0.342229"/>
<line x1="340.615" y1="269.935" x2="340.615" y2="276.68" stroke="white" stroke-width="0.342229"/>
<line x1="339.041" y1="268.811" x2="339.041" y2="275.556" stroke="white" stroke-width="0.342229"/>
<line x1="334.094" y1="271.284" x2="334.094" y2="278.029" stroke="white" stroke-width="0.342229"/>
<line x1="335.218" y1="273.308" x2="335.218" y2="280.053" stroke="white" stroke-width="0.342229"/>
<line x1="337.242" y1="264.538" x2="337.242" y2="271.284" stroke="white" stroke-width="0.342229"/>
<line x1="335.218" y1="266.562" x2="335.218" y2="273.308" stroke="white" stroke-width="0.342229"/>
<line x1="335.893" y1="267.911" x2="335.893" y2="274.657" stroke="white" stroke-width="0.342229"/>
<line x1="334.094" y1="260.266" x2="334.094" y2="267.012" stroke="white" stroke-width="0.342229"/>
<line x1="332.745" y1="260.266" x2="332.745" y2="267.012" stroke="white" stroke-width="0.342229"/>
<line x1="397.727" y1="283.201" x2="397.727" y2="289.947" stroke="white" stroke-width="0.342229"/>
<line x1="396.828" y1="275.781" x2="396.828" y2="282.526" stroke="white" stroke-width="0.342229"/>
<line x1="401.999" y1="285.225" x2="401.999" y2="291.97" stroke="white" stroke-width="0.342229"/>
<line x1="399.526" y1="276.231" x2="399.526" y2="282.976" stroke="white" stroke-width="0.342229"/>
<line x1="403.124" y1="288.598" x2="403.124" y2="295.343" stroke="white" stroke-width="0.342229"/>
<line x1="393.905" y1="279.154" x2="393.905" y2="285.899" stroke="white" stroke-width="0.342229"/>
<line x1="403.124" y1="281.177" x2="403.124" y2="287.923" stroke="white" stroke-width="0.342229"/>
<line x1="401.999" y1="276.006" x2="401.999" y2="282.751" stroke="white" stroke-width="0.342229"/>
<circle r="8.2135" transform="matrix(1 0 0 -1 104.214 354.214)" fill="white"/>
<circle r="8.2135" transform="matrix(1 0 0 -1 86.2135 336.214)" fill="#C4C4C4"/>
<circle r="8.2135" transform="matrix(1 0 0 -1 125.214 370.214)" fill="#C4C4C4"/>
<circle r="8.2135" transform="matrix(1 0 0 -1 147.214 382.214)" fill="white"/>
<path d="M335.962 125.849L345.832 139.29L328.577 140.8L335.962 125.849Z" fill="#C4C4C4"/>
<path d="M350.099 167.468L364.257 158.659L348.801 150.843L350.099 167.468Z" fill="white"/>
<path d="M377.923 138.988L380.181 155.51L364.298 148.602L377.923 138.988Z" fill="#C4C4C4"/>
<path d="M375.175 170L383.835 184.25H366.515L375.175 170Z" fill="#C4C4C4"/>
<path d="M368.852 133.084L353.188 127.365L366.714 116.546L368.852 133.084Z" fill="white"/>
<path d="M393.608 171.369L396.247 154.904L380.209 161.444L393.608 171.369Z" fill="white"/>
<path d="M205.955 196V181.25H208.555V196H205.955ZM212.129 183.7C211.696 183.7 211.346 183.577 211.079 183.33C210.819 183.077 210.689 182.733 210.689 182.3C210.689 181.867 210.833 181.51 211.119 181.23C211.406 180.95 211.819 180.81 212.359 180.81C212.906 180.81 213.323 180.993 213.609 181.36C213.903 181.72 214.049 182.183 214.049 182.75C214.049 183.29 213.916 183.77 213.649 184.19C213.383 184.603 213.049 184.957 212.649 185.25C212.249 185.537 211.849 185.76 211.449 185.92L211.119 185.27C211.399 185.157 211.673 185.003 211.939 184.81C212.213 184.617 212.436 184.403 212.609 184.17C212.789 183.93 212.883 183.687 212.889 183.44C212.863 183.48 212.779 183.533 212.639 183.6C212.506 183.667 212.336 183.7 212.129 183.7ZM216.355 196V185.38H218.985V186.77C219.332 186.283 219.772 185.9 220.305 185.62C220.838 185.34 221.448 185.2 222.135 185.2C223.002 185.2 223.685 185.387 224.185 185.76C224.685 186.127 225.045 186.613 225.265 187.22C225.592 186.607 226.045 186.117 226.625 185.75C227.205 185.383 227.892 185.2 228.685 185.2C229.512 185.2 230.178 185.37 230.685 185.71C231.198 186.05 231.568 186.517 231.795 187.11C232.028 187.703 232.145 188.373 232.145 189.12V196H229.515V189.89C229.515 189.517 229.482 189.147 229.415 188.78C229.348 188.413 229.188 188.11 228.935 187.87C228.688 187.623 228.288 187.5 227.735 187.5C227.195 187.5 226.765 187.64 226.445 187.92C226.132 188.193 225.905 188.543 225.765 188.97C225.632 189.397 225.565 189.833 225.565 190.28V196H222.955V189.91C222.955 189.557 222.922 189.193 222.855 188.82C222.788 188.447 222.628 188.133 222.375 187.88C222.128 187.627 221.732 187.5 221.185 187.5C220.652 187.5 220.225 187.64 219.905 187.92C219.585 188.193 219.352 188.55 219.205 188.99C219.058 189.43 218.985 189.89 218.985 190.37V196H216.355Z" fill="white"/>
<path d="M130.914 272.768C127.053 272.768 123.959 272.096 121.634 270.752C119.33 269.387 117.655 267.499 116.61 265.088C115.586 262.656 115.074 259.84 115.074 256.64V254.432H124.93V255.744C124.93 257.301 125.09 258.773 125.41 260.16C125.751 261.547 126.349 262.667 127.202 263.52C128.077 264.373 129.314 264.8 130.914 264.8C132.514 264.8 133.73 264.373 134.562 263.52C135.415 262.645 135.991 261.472 136.29 260C136.589 258.507 136.738 256.864 136.738 255.072V224.8H146.658V256.48C146.658 259.445 146.199 262.165 145.282 264.64C144.365 267.093 142.765 269.067 140.482 270.56C138.199 272.032 135.01 272.768 130.914 272.768ZM183.171 264.32V272H154.467V224.8H183.171V232.48H164.451V244.48H179.619V252.16H164.451V264.32H183.171ZM200.663 272H190.967V224.8H206.391L220.535 263.84V224.8H230.199V272H214.679L200.663 233.408V272ZM247.725 272H238.029V224.8H253.453L267.597 263.84V224.8H277.261V272H261.741L247.725 233.408V272ZM282.76 272L294.536 224.736H310.248L321.96 272H311.784L309.288 261.056H295.464L292.936 272H282.76ZM297.256 253.312H307.528L302.408 230.944L297.256 253.312ZM167.466 288.8C172.394 288.8 176.021 289.824 178.346 291.872C180.693 293.92 181.866 296.693 181.866 300.192C181.866 302.517 181.408 304.501 180.49 306.144C179.573 307.765 178.41 309.024 177.002 309.92C175.594 310.816 174.165 311.307 172.714 311.392C174.229 311.435 175.786 311.829 177.386 312.576C178.986 313.301 180.33 314.485 181.418 316.128C182.506 317.749 183.05 319.915 183.05 322.624C183.05 325.205 182.528 327.509 181.482 329.536C180.458 331.541 178.794 333.12 176.49 334.272C174.208 335.424 171.168 336 167.37 336H148.81V288.8H167.466ZM164.938 296.48H158.314V307.872H164.426C166.944 307.872 168.832 307.339 170.09 306.272C171.349 305.184 171.978 303.723 171.978 301.888C171.978 298.283 169.632 296.48 164.938 296.48ZM165.45 328.288C167.904 328.288 169.76 327.733 171.018 326.624C172.277 325.493 172.906 323.968 172.906 322.048C172.906 319.893 172.192 318.261 170.762 317.152C169.333 316.043 167.434 315.488 165.066 315.488H158.314V328.288H165.45ZM189.81 336V288.8H199.602V336H189.81ZM207.435 336V288.8H226.571C231.521 288.8 235.211 289.931 237.643 292.192C240.097 294.432 241.323 297.664 241.323 301.888C241.323 304.32 240.854 306.4 239.915 308.128C238.998 309.835 237.857 311.157 236.491 312.096C235.147 313.035 233.846 313.557 232.587 313.664C233.867 313.749 235.094 314.08 236.267 314.656C237.441 315.211 238.401 316.096 239.147 317.312C239.894 318.528 240.267 320.16 240.267 322.208V331.2C240.267 332.245 240.342 333.216 240.491 334.112C240.662 334.987 240.907 335.616 241.227 336H231.275C230.657 335.061 230.347 333.461 230.347 331.2V323.36C230.347 321.504 229.867 320.075 228.907 319.072C227.947 318.048 226.411 317.536 224.299 317.536H217.163V336H207.435ZM224.235 296.448H217.163V309.856H224.427C226.347 309.856 227.937 309.216 229.195 307.936C230.475 306.656 231.115 304.939 231.115 302.784C231.115 300.8 230.507 299.253 229.291 298.144C228.097 297.013 226.411 296.448 224.235 296.448ZM268.216 336.768C264.312 336.768 260.749 335.829 257.528 333.952C254.328 332.053 251.768 329.291 249.848 325.664C247.928 322.037 246.968 317.6 246.968 312.352C246.968 307.104 247.917 302.677 249.816 299.072C251.736 295.467 254.296 292.736 257.496 290.88C260.696 289.024 264.269 288.096 268.216 288.096C272.162 288.096 275.736 289.024 278.936 290.88C282.136 292.736 284.685 295.467 286.584 299.072C288.482 302.677 289.432 307.104 289.432 312.352C289.432 317.6 288.472 322.037 286.552 325.664C284.632 329.291 282.061 332.053 278.84 333.952C275.64 335.829 272.098 336.768 268.216 336.768ZM268.216 328.8C270.2 328.8 272.034 328.256 273.72 327.168C275.426 326.08 276.792 324.331 277.816 321.92C278.84 319.509 279.352 316.32 279.352 312.352C279.352 308.384 278.829 305.205 277.784 302.816C276.76 300.427 275.405 298.709 273.72 297.664C272.034 296.597 270.2 296.064 268.216 296.064C266.232 296.064 264.386 296.597 262.68 297.664C260.994 298.709 259.64 300.427 258.616 302.816C257.592 305.205 257.08 308.384 257.08 312.352C257.08 316.32 257.592 319.509 258.616 321.92C259.64 324.331 260.994 326.08 262.68 327.168C264.386 328.256 266.232 328.8 268.216 328.8Z" fill="white"/>
</svg>
