<svg width="200" height="81" viewBox="0 0 200 81" fill="none" xmlns="http://www.w3.org/2000/svg">
<path d="M37.0931 35.2564C14.7224 46.1764 7.84936 39.6225 14.6714 28.8892C21.4934 18.1558 23.1307 16.2002 23.1307 16.2002M37.0931 35.2564L23.1307 16.2002M37.0931 35.2564C37.0931 35.2564 6.66684 54.3581 17.6276 61.0437C28.5883 67.7293 37.0931 61.0437 37.0931 61.0437M37.0931 35.2564C37.0931 35.2564 37.0931 61.0437 37.0931 58.4968V61.0437M37.0931 35.2564C37.0931 35.2564 49.009 35.2564 52.329 31.0267C55.6491 26.7971 51.5104 19.2019 47.6446 18.3378C43.7787 17.4737 23.1307 16.2002 23.1307 16.2002M37.0931 35.2564L55.2852 42.4423C55.2852 42.4423 70.0662 50.0374 67.9742 58.4968C65.8821 66.9562 55.2852 64.4547 55.2852 64.4547L37.0931 61.0437" stroke="black" stroke-width="2.05352"/>
<path d="M79.8997 45.6703C79.5797 45.6917 79.3344 45.6437 79.1637 45.5263C78.9931 45.409 78.9077 45.233 78.9077 44.9983C78.9077 44.5823 79.1371 44.3583 79.5957 44.3263L80.0917 44.2943C80.5931 44.273 80.9664 44.1237 81.2117 43.8463C81.4571 43.5583 81.5797 43.1103 81.5797 42.5023V35.0623C81.5797 34.817 81.6544 34.6197 81.8037 34.4703C81.9637 34.3103 82.1664 34.2303 82.4117 34.2303C82.6677 34.2303 82.8704 34.3103 83.0197 34.4703C83.1691 34.6197 83.2437 34.817 83.2437 35.0623V42.5023C83.2437 43.505 83.0037 44.2677 82.5237 44.7903C82.0544 45.3023 81.3451 45.585 80.3957 45.6383L79.8997 45.6703ZM88.7609 45.5903C88.5049 45.5903 88.3022 45.521 88.1529 45.3823C88.0142 45.233 87.9449 45.0357 87.9449 44.7903V35.1103C87.9449 34.865 88.0142 34.673 88.1529 34.5343C88.3022 34.385 88.5049 34.3103 88.7609 34.3103H94.6489C94.8942 34.3103 95.0809 34.369 95.2089 34.4863C95.3475 34.6037 95.4169 34.769 95.4169 34.9823C95.4169 35.1957 95.3475 35.361 95.2089 35.4783C95.0809 35.585 94.8942 35.6383 94.6489 35.6383H89.5609V39.1903H94.3289C94.5742 39.1903 94.7609 39.249 94.8889 39.3663C95.0275 39.4837 95.0969 39.649 95.0969 39.8623C95.0969 40.0757 95.0275 40.241 94.8889 40.3583C94.7609 40.4757 94.5742 40.5343 94.3289 40.5343H89.5609V44.2623H94.6489C95.1609 44.2623 95.4169 44.481 95.4169 44.9183C95.4169 45.1317 95.3475 45.297 95.2089 45.4143C95.0809 45.5317 94.8942 45.5903 94.6489 45.5903H88.7609ZM107.864 34.2303C108.099 34.2303 108.286 34.3103 108.424 34.4703C108.574 34.6197 108.648 34.817 108.648 35.0623V44.8383C108.648 45.0837 108.574 45.2863 108.424 45.4463C108.275 45.5957 108.083 45.6703 107.848 45.6703C107.571 45.6703 107.358 45.5637 107.208 45.3503L100.936 37.0783V44.8383C100.936 45.0837 100.862 45.2863 100.712 45.4463C100.574 45.5957 100.387 45.6703 100.152 45.6703C99.9176 45.6703 99.7309 45.5957 99.5922 45.4463C99.4536 45.297 99.3842 45.0943 99.3842 44.8383V35.0623C99.3842 34.817 99.4589 34.6197 99.6082 34.4703C99.7576 34.3103 99.9496 34.2303 100.184 34.2303C100.462 34.2303 100.675 34.337 100.824 34.5503L107.096 42.8383V35.0623C107.096 34.817 107.166 34.6197 107.304 34.4703C107.443 34.3103 107.63 34.2303 107.864 34.2303ZM121.835 34.2303C122.07 34.2303 122.256 34.3103 122.395 34.4703C122.544 34.6197 122.619 34.817 122.619 35.0623V44.8383C122.619 45.0837 122.544 45.2863 122.395 45.4463C122.246 45.5957 122.054 45.6703 121.819 45.6703C121.542 45.6703 121.328 45.5637 121.179 45.3503L114.907 37.0783V44.8383C114.907 45.0837 114.832 45.2863 114.683 45.4463C114.544 45.5957 114.358 45.6703 114.123 45.6703C113.888 45.6703 113.702 45.5957 113.563 45.4463C113.424 45.297 113.355 45.0943 113.355 44.8383V35.0623C113.355 34.817 113.43 34.6197 113.579 34.4703C113.728 34.3103 113.92 34.2303 114.155 34.2303C114.432 34.2303 114.646 34.337 114.795 34.5503L121.067 42.8383V35.0623C121.067 34.817 121.136 34.6197 121.275 34.4703C121.414 34.3103 121.6 34.2303 121.835 34.2303ZM137.277 44.6303C137.331 44.7583 137.357 44.865 137.357 44.9503C137.357 45.153 137.272 45.3237 137.101 45.4623C136.941 45.601 136.76 45.6703 136.557 45.6703C136.419 45.6703 136.285 45.633 136.157 45.5583C136.04 45.473 135.949 45.3557 135.885 45.2063L134.829 42.8063H128.973L127.917 45.2063C127.853 45.3557 127.757 45.473 127.629 45.5583C127.501 45.633 127.368 45.6703 127.229 45.6703C127.016 45.6703 126.824 45.601 126.653 45.4623C126.493 45.3237 126.413 45.153 126.413 44.9503C126.413 44.865 126.44 44.7583 126.493 44.6303L131.005 34.7583C131.08 34.5877 131.197 34.4543 131.357 34.3583C131.528 34.2623 131.704 34.2143 131.885 34.2143C132.067 34.2143 132.237 34.2623 132.397 34.3583C132.568 34.4543 132.691 34.5877 132.765 34.7583L137.277 44.6303ZM129.565 41.4943H134.253L131.901 36.1983L129.565 41.4943ZM154.094 39.7823C154.745 39.9637 155.246 40.289 155.598 40.7583C155.961 41.2277 156.142 41.8143 156.142 42.5183C156.142 43.489 155.806 44.2463 155.134 44.7903C154.473 45.3237 153.545 45.5903 152.35 45.5903H148.27C148.014 45.5903 147.812 45.521 147.662 45.3823C147.524 45.233 147.454 45.0357 147.454 44.7903V35.1103C147.454 34.865 147.524 34.673 147.662 34.5343C147.812 34.385 148.014 34.3103 148.27 34.3103H152.174C153.337 34.3103 154.244 34.5717 154.894 35.0943C155.556 35.6063 155.886 36.3263 155.886 37.2543C155.886 37.8517 155.726 38.369 155.406 38.8063C155.097 39.2437 154.66 39.569 154.094 39.7823ZM149.07 39.1903H151.918C153.497 39.1903 154.286 38.593 154.286 37.3983C154.286 36.801 154.089 36.3583 153.694 36.0703C153.31 35.7823 152.718 35.6383 151.918 35.6383H149.07V39.1903ZM152.174 44.2623C152.996 44.2623 153.598 44.113 153.982 43.8143C154.366 43.5157 154.558 43.0517 154.558 42.4223C154.558 41.7823 154.361 41.3077 153.966 40.9983C153.582 40.6783 152.985 40.5183 152.174 40.5183H149.07V44.2623H152.174ZM161.194 45.6703C160.949 45.6703 160.751 45.5957 160.602 45.4463C160.453 45.297 160.378 45.0943 160.378 44.8383V35.0623C160.378 34.817 160.453 34.6197 160.602 34.4703C160.751 34.3103 160.949 34.2303 161.194 34.2303C161.45 34.2303 161.653 34.305 161.802 34.4543C161.951 34.6037 162.026 34.8063 162.026 35.0623V44.8383C162.026 45.0943 161.951 45.297 161.802 45.4463C161.663 45.5957 161.461 45.6703 161.194 45.6703ZM175.524 44.5663C175.62 44.705 175.668 44.8543 175.668 45.0143C175.668 45.2063 175.588 45.3717 175.428 45.5103C175.278 45.6383 175.102 45.7023 174.9 45.7023C174.601 45.7023 174.361 45.569 174.18 45.3023L172.036 41.9743C171.79 41.5903 171.529 41.3237 171.252 41.1743C170.974 41.0143 170.612 40.9343 170.164 40.9343H168.356V44.8383C168.356 45.0943 168.281 45.297 168.132 45.4463C167.993 45.5957 167.796 45.6703 167.54 45.6703C167.294 45.6703 167.097 45.5957 166.948 45.4463C166.798 45.297 166.724 45.0943 166.724 44.8383V35.1103C166.724 34.865 166.793 34.673 166.932 34.5343C167.081 34.385 167.284 34.3103 167.54 34.3103H171.524C172.772 34.3103 173.721 34.5877 174.372 35.1423C175.033 35.697 175.364 36.5077 175.364 37.5743C175.364 38.4597 175.113 39.1797 174.612 39.7343C174.11 40.2783 173.396 40.625 172.468 40.7743C172.745 40.849 172.996 40.9823 173.22 41.1743C173.444 41.3663 173.662 41.633 173.876 41.9743L175.524 44.5663ZM171.332 39.6063C172.164 39.6063 172.777 39.4463 173.172 39.1263C173.577 38.7957 173.78 38.289 173.78 37.6063C173.78 36.9237 173.582 36.4277 173.188 36.1183C172.793 35.7983 172.174 35.6383 171.332 35.6383H168.34V39.6063H171.332ZM184.62 45.7183C183.554 45.7183 182.626 45.4837 181.836 45.0143C181.058 44.545 180.455 43.8783 180.028 43.0143C179.602 42.1503 179.388 41.1317 179.388 39.9583C179.388 38.7743 179.596 37.7503 180.012 36.8863C180.439 36.0117 181.047 35.345 181.836 34.8863C182.626 34.417 183.554 34.1823 184.62 34.1823C185.698 34.1823 186.631 34.417 187.42 34.8863C188.21 35.345 188.812 36.0117 189.228 36.8863C189.655 37.7503 189.868 38.769 189.868 39.9423C189.868 41.1157 189.655 42.1397 189.228 43.0143C188.812 43.8783 188.21 44.545 187.42 45.0143C186.631 45.4837 185.698 45.7183 184.62 45.7183ZM184.62 44.3743C185.751 44.3743 186.631 43.9903 187.26 43.2223C187.89 42.4543 188.204 41.361 188.204 39.9423C188.204 38.5237 187.89 37.4357 187.26 36.6783C186.642 35.9103 185.762 35.5263 184.62 35.5263C183.5 35.5263 182.626 35.9103 181.996 36.6783C181.378 37.4357 181.068 38.5237 181.068 39.9423C181.068 41.361 181.378 42.4543 181.996 43.2223C182.626 43.9903 183.5 44.3743 184.62 44.3743Z" fill="black"/>
</svg>
